<?xml version="1.0" encoding="UTF-8"?>
<svg id="Layer_1" xmlns="http://www.w3.org/2000/svg" version="1.1" viewBox="0 0 145.74 137.71">
  <!-- Generator: Adobe Illustrator 29.8.3, SVG Export Plug-In . SVG Version: 2.1.1 Build 3)  -->
  <defs>
    <style>
      .st0 {
        fill: #231f20;
      }
    </style>
  </defs>
  <path class="st0" d="M135.67,50.33c24.29,23.87.96,62.11-31.18,52.64-.63.24-4.63,6.69-5.45,7.8-.61.63-1.73,2.91-2.5,2.83l-4.88-6.31,9.56-11.78c1.67-1.51,4.28,0,6.27.37,42.53,3.36,34.86-52.57-3.53-52.52-13.27.94,16.58-9.71,31.72,6.96h0Z"/>
  <path class="st0" d="M121.46,38.32c-11.15-3.13-23.81-.73-31.55,8.21,55.33-5.75,52.06,56.96,10.91,43.39l-9.32,10.79c-2.5-7.2-.37-15.75-3.1-22.62-2.88,10.68-6.38,15.44-14.84,21.9-15.57,19.35-21.32,26.02-46.9,31.77-7.42,1.63-15.31,2.11-22.01,5.95-1.97.22-4.24-6.25-4.46-7.87-1.15-8.35,3.26-10.52,8.32-15.23,10.7-9.36-18.7-18.63,7.03-38.65-4.54-21.14,12.1-18.25,13.21-41.97.34-1.45,1.5-4.14,1.63-5.3-.23-1.52-.34-4.5.46-5.94.31-.22,1.17,1.54,1.44,1.3.14-.13,1.38-2.79,1.76-3.36C42.21,10.52,54.1.37,68.09,2.01c25.31-8.59,49.51,11.58,53.38,36.3h-.01ZM71.61,33.7c-2.66-4.33-7.58-9.51-12.71-10.99-5.83-1.56-17.12,2.16-19.28,8.46l8.36-.5c-1.29-1.27-2.2-2.94-2.45-4.75l7.63,2.88c.15-.16-1.92-3.45-1.51-4.18,8.74,1.37,7.79,8.08,9.72,6.85-.09-.67-1.83-3.08-1.23-3.82,2.92.28,5.57,2.72,6.72,4.96.21.13,4.56,1.25,4.75,1.09ZM72.47,26.21c-.88,4.85,4.02,9.02,8.15,10.22.88-1.29-1.02-4.71-2.02-5.9-1.73-1.91-4.39-2.41-6.12-4.32,0,0-.01,0-.01,0ZM81.12,28.09c-.71,3.78,1.11,8.57,4.25,10.95,2.5-3.97-.42-9.15-4.25-10.95ZM53.6,34.72c-5.15-.43-10.33-.02-15.42.79-.53,1.22-2.66,8.17-2.57,9.85,8.98,2.69,5.46,11.74,1.11,17.07-5.26,5.42-.22,5.8,3.46,8.55,1.2,2.08-1.18,4.67-.3,5.53s2.32-.38,3.38-.27c2.48.95,6.92,3.19,9.62,3.86-3.89,2.94-18.6-3.82-9.98,6.31-.08,4.93-2.33,9.47,5.06,10.46,11.06-.93,34.17-8.41,36.68-21.39.29-.86,1.3-5.56,1.52-5.76,2.61,3.61,11.02-.81,7.9-4.8-8.9-7.3-12.9-7.9-16.24-20.36l3.33-.82c.98.07,4.57-3.7,4.29-4.13-2.75-.92-7.09-.15-8.86,2.59l-1.17-1.88c-2.5,1.63-5.86,1.78-8.56.73-.34-.48,4.14-3.26,4.18-3.53.02-.13-1.92-.63-2.12-.61-2.42,2.42-6.9,4.99-10.27,2.92l4.47-4.18c-2.47-.75-2.61.23-4.25,1.23-2.24,1.34-6.14,2-8.29.5l3.02-2.67h0Z"/>
</svg>