<?xml version="1.0" encoding="UTF-8"?><svg id="Layer_1" xmlns="http://www.w3.org/2000/svg" viewBox="0 0 223.72 213.85"><defs><style>svg { color: #444444; } @media (prefers-color-scheme: dark) { svg { color: #ffffff; } } .cls-1{fill:currentColor;}.cls-2{fill:#feffff;}</style></defs><path class="cls-1" d="M223.47,146.21c-.21-1.64-6.9-15.45-8.41-11.53,2.77,3.17,7.28,7.93,7.32,12.84-2.53-3.7-8.38-6.67-8.71-10.89-11.16,14.43-2.94,6.14-6.32,25.69l-3.3-14.22c-3.76-.76-2.07,6.22-2.36,8.88-3.77,11.76-.63,24.4,9.81,31.47-11.75-1.69-12.47-22.41-14.12-7.26.17,3.81.8,6.33-2.25,1.75-1.98-7.51,1.83-20.57-3.48-27.78-3.04-1.93-4.11,21.89-1.93,23.92-4.82-4.22-4.48-11.51-3.05-17.2-2.5,2.09-2.68,5.45-3.81,8.27-.79-2.22-.08-4.45.33-6.64-8.03,13.92,11.21,20.89,13.28,33.21-10.33-18.04-38.88-10.55-24.39-39.63-10.14-2.06-11.14,18.72-5.01,24.39l-11.32-5.01c-.04,6.42,12.55,7.78,17,13.16,12.79,7.39-13.28-3.33-18.31-5.53,0,8.9,16.64,6.79,22.32,11.97.39-3.9,11.86,6.57,12.09,9.8,1.54-2.15-4.84-9.97-4.79-10.56,3.8,2.11,6.68,7.95,7.62,12.3.8-6.41-3.83-12.04-8.28-16.01,1.3-.17,6.67,4.04,7.08,4.03-1.16-3.3-6.55-6.51-9.26-9.04,10.52,2.5,20,16.96,17.53,26.9,0,0-24.94,0-24.94,0-.09-6.5,4.27-12.94-2.18-17.86,1.16,4.52,2.53,17.14-3.05,17.86-.46-.43,3.13-10.71,1.42-12.42-3.44,20.31-10.78,13.93-7.73-2.39-1.58,4.89-2.14,9.81-.66,14.81h-3.27c-.89-4.31-4.91-11.69-6.95-13.81-1.59,5.61,2.12,8.65,3.24,13.81-3.47.39-2.93-.32-4.79-2.83,0,0,.21,2.83.21,2.83-7.69-4.65,4.38-26.4,3.45-35.63.5-5.36-12.52-23.95-18.47-22.4-1.45.87-9.91,4.25-9.77,6.1,2,1.2,8.44,4.5,8.35.1,1.89,4.91,6.79,8.85,11.65,10.89-8.44.85-23.04-17.91-26.56-2.84,6.73.87,11.56,6.51,18.07,8.06-8.68,2.62-19.09-14.4-23.84-.43-.87,2.55.1,1.01,1.96,1.07,4.67.15,10.85,5.9,15.79,6.54-5.25,2.04-12.21-5.14-16.66-4.57-10.51,3.25-3.7,15.29-4.46,8.28,1.52-.43,4.06.38,2.94-2.18,1.94,2.9,8.01,4.45,9.38,5.89-.98.37-2.97.01-.98,1.61,2.26,1.04,3.48,1.73.21,1.43-.6.62,2.46,3.6,2.07,4.35-3.9-3.14-1.88,12.01-1.2,13.72-5.28,1.72-1.66-8.08-4.02-7.83-3.57,10.55-18.76,7.88-17.92-3.54.59-4.01,7.38-8.15,7.52-9.46.17-1.58-3.12-4.05-1.08-8.49,5.24-4.22,3.57-7.6,7.26-12.56,3.97-2.24,3.91-7.86,8.34-9.93-2.6-7.55,3.88-14.44,9.4-6.8,2.05-1.37,6.61-2.53,9-.62-5.01-11.14-.19-60.86-10.85-22.07-5.13,11.5-13.01,13.99-20.93,22.25-9.78,10.94-16.24,24.25-30.75,31.1,4.39,19.17,8.17,8.99,19.84,16.52-22.16-5.22-6.87,5.43,2.18,11.43-14.35-4.21-26.35-23.75-23.09-38.54-5.45,7.35,1.35,19.07,5.23,25.91-1.03-1-6.92-2.75-7.3-3.71-.77-1.96,2.05-2.5,2.49-1.38.3.77-2.57,2.55.68,1.5,1.33-3.2-2.02-2.57-2.18-2.73-.17-.17,1.6-2.81.32-3.05-.13-.02-.87,2.52-1.63,1.74-.2-.21,1.39-3.07.87-3.81l-1.09,2.07c.76-6.52-1.61,1.36-.43,3.58-4.52,14.2,5.08,10.1,1.89,15.41-1.38,7.05-1.48.81-.61-1.64-2.79-1.85-4.05-5.86-3.46-9.29,0,0-19.6-2.61-19.6-2.61l6.97,16.55c-18.62.64-13.78.92-20.58-15.03-3.75,3.22-4.22,17.79-10.13,15.03,4.2-14.73,10.32-14.66-8.28-10.78-6.8,1.48-13.74,6.2-18.61,10.57-5.01-1.16,6.26-7.91,6.62-8.64-3.38-4.97-5.88-11.8-3.91-17.94l-3.7,6.53c-3.05-12.97,9.87-17.86,17.4-24.11.13-.53-3.82-8.31-4.34-9.97-8.02-16.88-4.51-34.85,11.51-44.92-4.15-14.41,2.25-26.79,12.11-36.44,4.88-8.43,9.31-20.88,6.01-29.81,6.43,3.48,3.12-15.83,5.45-16.99,2.61,5.27,1.49,4.84,4.7-.63C90.61-21.4,181.88-4.77,186.42,63.38c28.45,9.87,42.41,39.42,30.99,67.66,3.97,4.44,7.27,7.36,6.06,15.17ZM182.96,62.37C179.4,28.5,148.73-3.17,113.05,3.8c6.84.45,14.06,1.5,19.82,5.44-10.64-3.42-22.76-4.55-33.1.44,17.61-4.28,37.18,4.81,46.82,19.6-13.89-15.29-40.98-24.91-58.58-10.23,40.97-18.36,63.77,30.49,69.25,63.15-6.64-16.43-17.02-31.56-25.04-47.36,8.42,6.13,10.85,17.19,16.34,25.59-4.59-29.36-39.02-55.48-66.21-35.06,3.43-1.54,7.24-3.41,11.11-2.61-5.01,1.2-10.5,3.44-13.5,7.84,4.34-2.47,9.8-4.41,14.81-2.61-6.6.07-10.69,5.21-16.88,6.53l.44-1.96c-5.06,5.34-14.12,5.15-16.44,13.61l11.54-.33-3.26-7.4,11.32,4.79-3.04-6.65c4.25.55,10.16,2.11,12.8,6.36,1.18,1.7.86,5.1,2.87,5.4,0,0-2.83-6.86-2.83-6.86,9.05,1,8.16,6.24,12.63,9.8l-5.22-11.22,3.59,1.42c-4.39-5.16-11.74-9.31-18.62-8.06,8.43-6.71,23.1-2.33,26.68,8.27-3.01-3.82-7.25-7.03-12.09-7.95,6.65,2.61,10.33,9.7,13.56,15.29,2.76,2.6-2.84-7.56-.93-10.39,2.59,2.89,6.26,4.32,9.58,6.21-4.32-8.14-10.67-13.97-18.95-17.96,10.31,2.13,18.02,9.67,22.44,18.94l-.11-5.01c4.97,3.56,10.56,8.95,7.94,15.58,3.57,7.49,22.16,15.63,23.54,26.01-.5-5.42-31.42-24.47-21.35-14.37-3.88-1.26-5.86-6.66-9.38-1.86,8.93,10.66,30.62,13.12,32.9,29.08-5.44-15.25-23.38-14.84-33.54-25.48,10.21,13.53,32.2,17.53,33.54,37.23-1.97-4.85-4.15-10.02-8.07-13.6,5.49,12.01,7.15,26.5,18.3,35.06-16.96-7.51-14.4-34.63-31.15-43.33,11.25,12.39,11.08,29.92,22.32,42.35,6.55,6.18,22.46,20.36,30.6,10.67-12.87-5.4-25.73-15.54-27.4-30.63-.47-4.76-1.6-12.16,1.89-1.89,6.28,13.87,13.79,25.47,29.34,30.12,17.74-12.99,8-26.62.76-42.57,4.16,1.85,7.8,4.8,11.1,7.84-1.48-6.67-12.36-9.47-14.59-15.79,0,0,13.26,10.59,13.26,10.59-1.68-6.18-7.03-8.7-11.09-12.87-5.2-8.64-16.94-15.56-26.78-16.67,3.79,5.78,7.56,13.78,8.82,20.9l-13.84-21.44-7.4-.99,5.65-2.52-4.34-14.9,7.84,14.04,8.92-.32-14.59-26.68c6.07,5.67,9.62,14.11,14.59,20.8-1.03-8.84-3.65-17.43-7.84-25.26,12.89,12.11,6.06,33.93,19.16,32.44ZM102.6,5.33c-12.65-.6-24.86,4.46-33.76,13.28,3.77-.61,7.82-2.01,11.54-.44-11.13.76-30.72,10.53-25.91,23.3,3.66-6.88,12.94-16.43,20.9-9.8.37-6.22-5.93-5.95-10.23-4.68,3.66-2.66,8.83-3.5,12.85-1.52,3.82-9.34,16.87-13.12.87-12.31,3.22-1.9,8.7-1.83,11.84-1.37,3.22-3.13,7.63-4.95,11.89-6.47ZM87.68,19.04v.22c.11-.08.11-.14,0-.22ZM73.19,34.29c-6.73-2.63-12.43,2.17-15.03,8.05,3.69-5.38,8.66-7.46,15.03-8.05ZM52.07,41.47c-.04,1.88-.25,4.99,1.52,6.31,1.71-6.19-2.2-8.79-4.79-13.5-.67,4.23-1.49,12.97,3.7,13.83,0,0-2.39-2.84-2.39-2.84,1.46.09-.79-5.47-.65-5.98l.87,2.39.65-2.17.22,3.92.87-1.96ZM55.12,44.52l3.49-6.75c-.38-.4-4.6,5.75-3.49,6.75ZM92.58,49.09c-1.18-5.48-6.36-10.94-11.98-10.88,1.6,5.4,6.13,10.08,11.98,10.88ZM53.82,50.18c4.64-.18,8.26-5.02,8.93-9.36-2.53,3.2-8.35,2.29-8.6,7.4l1.31-2.18.21,1.3c.35-.57,1.55-3.62,1.31-.87l3.27-2.61c.5.36-1.53,1.53-1.63,1.74,2.88.06-1.66,1.58-1.96,2.07,2.95.29-4.3,1.1-2.83,2.5ZM91.93,59.33c3.99.37,9.55.11,11.54-4.25-1.72-.07-2.45,1.4-3.38,2.5,2.38-4.51-4.19,3.53-1.96-.65l-2.94,1.3c1.55-1.37,2.38-2.61,4.36-2.61-3.09-2.18,12.9-1.25,14.24-.44.53,3.26,5.18,5.12,7.42,2.28,2.66.31,3.23.01.45-1.19-3.27-5.46,4.98,1.34,6.13,1.82,1.14,1.16,2.82,7.14,5.39,5.35,1.47-1.02-.79-.53-1.52-.84-1.91-3.2-4.9-6.2-8.04-8.29-.91-7.04-6.62-10.05-12.09-13.5-.15,5.52,4.11,10.82,9.8,10.89-.91-1.1-2.3-1.78-3.7-1.96-.2-.71.59-.34.65-.44.26-.4-2.38-1.96-3.05-1.52,2.2-.56-1.01-1.01-1.52-1.85h.87s-1.42-2.5-1.42-2.5l3.27,3.04v-1.3c.74,1.15,3.4,5.31,2.39,1.31,2.88,5.38,8,9.6-1.85,5.44-.21.71,1.01.5,1.09.66-4.75,3.34-7.98-.34-11.98-2.4,3.44-.44-1.46-2.58-1.53-2.94,2.68.2-1.68-1.78-.88-2.94l6.97,8.49c.78-5.99-5.18-9.31-9.8-10.89.81,4.87,5.74,10.5,10.45,12.41-4.22-.93-10.71-.6-10.85-6.24-7.65-9.31-9.92-3.03-1.65,3.18-16.88-1.35-13.12-6.28-26.59-10.44,2.03,8.1,9.23,7.29,15.79,8.72-3.45,1.26-5.98,3.27-8.27,6.09,11.93,2.24,11.89-8.49,24.83-1.95-5.45.46-8,.44-12.63,5.66ZM125.25,43.54c-.71,3.63,1.29,10.9,4.25,12.52,1.15-.23-1.2-5.71-2.72-5.77,5.45,3.36-3.58-4.79,1.09-1.2-.35-1.24-1.79-2.85-1.31-4.13l2.18,4.35c.17-1.99,1.43,2.03,1.49,2.53.39,3.2-1.68,4.56.14,6.83.02-1.14.06-3.14.74-4.48.96-4.44-3.92-10.54-5.86-10.65ZM52.47,50.01c-.09-.23-3.72-3.27-3.89-3.09-1.34,2.84,2.06,2.94,3.59,4.79.08-.01.35-1.55.29-1.7ZM74.87,47.94c-.25-2.38-7.95.16-10.06-.05-2.76-.21-7.29-.41-2.29,1.64-1.44-.13-3.04-.86-4.34.12s1.76.32,1.43,1.43c-1.14,2.67-4.91,2.67-4.28,3.55,5.08,1.89,3.57-6.93,8.5.34-.59-5.97-3.72-2.86.76-6.97-5.07,10.44,12.57,8.97,5.89-.44,4.33,2.07,2.01,3.49,1.41,7.19l2.96-3.91c.54.14,5.66,5.57,6.18,1.51-1.2,1.09-4.41-1.72-5-2.51,5.23-1.34.25-1.83-1.96-1.2.04-.4.65-.49.8-.72ZM52.94,55.62c.92-2.53-5.83-6.89-7.18-5.88-.39.29,4.74,7.71,6.75,6.42-1.25-1.33-2.22-2.48-3.92-3.27.49-.38,1.18.81,1.09,0-4.64-3.73,2.95.94,3.27,2.72ZM83.43,50.18h-4.9c-.93.66,1.49,1.66,2.2.65.69-.03,2.09,1.24,2.7-.65ZM113.27,50.18c-.44,2.12.81,3.19,2.61,1.85l-2.61-1.85ZM127.42,55.84l-3.48-5.66c-1.36,1.55,3.24,5.92,3.48,5.66ZM57.95,51.49l-3.7.22c-.88.86,3.35,1.22,3.7-.22ZM61.65,112.03c.6-2.77-.84-5.6-3.92-6.21,1.41,5.64.96,11.44,3.49,16.66.74-2.34-4.26-8.8,2.03-6.37,4.13-3.31,9.99,2.15,14.53,3.42,1.3.33,4.4-.14,4.35,1.53-5.82,1.97-13.89-2.49-19.35,1.34-5.05,10.19,20.46-1.69,8.25,5.41.01.16,2.2.94,2.83,1.52,4.62,3.82-5.05-.13-7.63,2.95-.26-.3-.62-4.67-2.83-4.35,3.3,6.68-.33,17.53,10.13,18.07,21.29-1.25,57.29-15.26,58.25-40.93,6.09,6.37,16.08-2.35,9.44-8.92-.37-.06-4.74,4.49-6.5,2.38-1.27-1.52,1.37-3.15,1.97-4.56,1.99-3.91-3.52-6.96-2.89-1.14-3.87,7.39-.95,7.08-6.38,4.71-3.82,1.99-12.89,11.66-18.52,11.58-.28-10.42,15.91-17.97,13.73-29.09.53,1.95,10.33,11.31,4.71,4.77-5.06-3.86-5.04-17.91-11.46-18.7.8-1.32-1.46-4.03-2.4-4.91-7.61,3.07-15.8-1.73-23.95-1.19l7.83-7.07c-5.28-1.53-6.19,3.84-11.86,4.25-.85.06-7.18-.5-7.51-.77-.66-.54.53-.81.43-1.3-.03-.15-2.09-1.35-2.51-1.64-1.18-2.46-1.85,1.32-3.04,2.18-13.45,4.04-9.63-6.03-14.7.55,1.18,1.29.56,1.34-.64,1.43-.42.35-1.85,9.41-2.63,10.65,27.07,9.51-17.07,31.84,6.71,37.61.5.16,2.58.39,2.66.51-.7,2.18,2.41,4.38,1.05,6.81-1.26,2.06-.77-3.5-1.92-4.2-.56-.04-1.52,2.69-1.74,3.05ZM49.46,153.51c.12.99-.08,2.15,0,3.16,1.79-5.31.07-11.38-1.27-16.39,2.79-4.33,7.19-9.28,6.93-14.97-1.79,4.84-4.42,9.61-8.27,13.06l5.22-14.37-8.28,13.28c-3.14-2.83-5.85-12.84-3.17-16.13,3.59-2.65,12.14-6.03,13.08-11.74-.41,1.63-11.35,9.69-11.87,9.14-.75-.78,6.03-7.23,6.75-7.95l-3.26,1.53c2.03-2.99,5.19-5.7,5.66-9.47-7.41,7.13-13.56,15.76-22.42,21.23,6.64-10.91,17.64-18.46,21.77-30.93l-7.62,8.61c9.74-11.83,7.63-27.43,10.67-41.37-.69,1.6-1.57,3.77-3.05,4.79.57-2.57-1.07-5.51-.03-7.91-.06-.21-3.28-2.75-3.46-2.54,1.23,24.4-22.16,29.71-20.42,53.4,6.92,14.67-23.38,13.81-13.59,41.04,12.47,32.96,10.9,13.6-9.77,35.02.74-.61,8.3-7.05,8.71-6.64-4.94,6.19-8.24,13.31-4.52,21.18,1.17,4.17,6.46,8.93,4.51,1.15-.86-13.28,9.67-21.82,20.69-26.46.54.58-8.2,10.56-9.01,11.78-2.11,2.87-10.18,19.64-2.09,14.9.19-.18.57-3.06.81-3.77,14.14-15.43,30.41-28.89,23.15-52.96,2.22,2.88,3.7,6.69,4.14,10.34ZM56.64,56.93c.43-.56-2.29-2.31-2.39-2.17-.22,2.01.37,2.93,2.39,2.17ZM113.48,57.15c-5.42-3.53-8.7-1.12-12.85,2.61,4.7.89,10,3.82,13.28-1.52-2.58-.05-4.55.45-6.64,1.96l1.2-1.52c-1.41.08-2.95.89-4.35.22l2.83-.66c-2.69-3.34,2.15.88,3.48-.65-3.69-2.34,1.76.69,3.05-.44ZM52.94,57.59c-2.27-.12-2.15,2.27-1.74,3.92l1.74-3.92ZM117.95,64.77c3.84.17,9.45.26,10.46-4.35l-2.51,1.52c1.68-2.19-1.43.39-1.85,1.31.94-2.43-.83-.56-1.53,0l.23-1.08-3.16,1.52c.56-.94,2.01-1.54,3.04-1.74l-1.3-.65,3.27-.33c.46-.38-2.56-1.47.09-.75l3.17-.23c-3.9-2.94-9.1.91-10.45,4.69-.09.69.43.1.54.1ZM133.46,60.7c-.29-.47-2.69-1.87-3.42-1.59.99.9,4.95,4.77,3.42,1.59ZM137.88,64.99c-.16-.5-2.74-2.74-3.05-2.39-.75.84,2.43,2.31,3.05,2.39ZM155.52,155.58c4.13-4.58,11.63-1.03,17.32-.22,69.74,3.28,53.33-105.66-11.56-91.88-.33.07-.38-.15-.32.43,61.97.76,61.11,99.04-5.01,78.4.13,1.78-6.35,7.86-6.31,8.38,1.98,2.69,5.31-5,7.07-5.99l.98,4.13c.45-1.46.04-2.95-.43-4.35,64.23,25.26,75.18-72.92,12.85-80.57,58.92-1.38,64.18,93.27,2.07,89.93-4.96-.32-15.41-5.31-16.66,1.74ZM61,75.66c.92-.7-5.81-3.91-6.53-3.7l1.96,5.44c.52-1.78,4.37-1.59,4.57-1.74ZM62.52,78.49c-.85-2.06-3.1-2.37-4.57-.76l4.57.76ZM62.53,80.24c-.07-.06-1.85-.21-1.74.32.96,1.74,1.93-.17,1.74-.32ZM61.87,81.98c-2.31,1.33-1.35-.14-2.83-1.09-.51,4.2,4.15,2.59,2.83,1.09ZM60.56,84.81l-1.74-.65c.12.45,1.39,1.2,1.74.65ZM60.35,85.68c-1.1-.29-.85.56-.87,1.3l.87-1.3ZM147.9,149.92c5.23-6.62,5.52-15.57,2.39-23.3-.13,7.97-.42,15.54-2.39,23.3ZM164.01,142.73c.47-.49-1.42-6.82-2.17-7.62.38,2.17-1.76,7.98,2.17,7.62ZM173.6,143.6c.54-3.38-3.88-6.57-6.31-7.62-.26.31,3.08,6.3,2.61,7.62h3.7ZM48.81,170.6c3.42-11.1,14.13-18.92,12.41-31.79-6.99,15.13-13.77,30.57-23.33,44.29-4.62,4.54-11.86,6.98-13.7,13.85,13.27-12.48,30.66-20.85,35.93-40.18-3.12,2.65-6.44,10.89-11.32,13.84ZM199.07,163.2c1-3.89.77-8.01-.76-11.75-4.04,2.25,1.44,7.68.76,11.75ZM152.25,162.98c9.06-3.04-6.68-17.44-8.93-7.84,2.85.56,5.27,3.06,7.4,5.01l-2.39-2.94c4.39,1.2,1.71-2.35,1.74-2.61.11-.83,5.15,3.32,4.41,5.28-.18.47-2.73,2.59-2.23,3.1ZM129.82,156.01c-3.14-5.3-7.91-.99-5.88,3.92.03-1.69,5.71-3.6,5.88-3.92ZM157.56,156.75c.49,8.55-10.83,8.09-2.59,16.03.01-1.9,14.85-25.08,2.59-16.03ZM145.72,158.63c-.59,1.11-.3,2.22.76,2.83,1.41-1.16,1.9-3.15-.76-2.83.14-1.61-3.31-2.55-3.48-2.39.44.56,2.44,4.28,3.48,2.39ZM175.34,157.32c-3.98-1.45,1.43,17.44,2.44,19.66.45.73,4.73,5.18,5.18,4.72-2.27-3.36-5.3-9.23-4.58-13.93-3.29,1.17,3.34-12.15-.2-10.22-1.18,10.23-2.34,10.52-2.84-.23ZM38.2,195.72c15.74-5.5,31.16-17.61,32.16-36-3.86,21.78-20.02,25.84-35.33,35.99-2.45,4.38,2.05,2.42,3.17.01ZM56.33,171.6c2.71-3.47,4.76-7.28,5.54-11.67-1.56,5.15-14.3,21.8-5.54,11.67ZM147.03,162.55c.62,0,2.27-2.07,1.41-2.39-.39-.15-1.38,2-1.41,2.39ZM148.34,162.98c.08.08,1.1-.84.87-1.09-.08-.08-1.1.84-.87,1.09ZM151.16,163.64c-.63-.04-1.72,2.19-1.52,2.39.57.6,2.01-1.79,1.52-2.39ZM73.63,188.03l-15.68,6.2c18.9,4.08,12.44,5.93,15.68-6.2ZM113.27,191.51c-2.61-.71-10.02,8.36-11.05,10.61,1.26,14.66,14.43,7.15,16.93-2.34-9.75,17.81-23.68,7.17-10.99-2.39-.93,1.99-3.25,3.23-3.29,5.67,3.3,2.66,5.28,3.37,7.71-.81,5.75-9.49,5.55-12.06-2.78-2.46-.04-1.85,7.59-7.5,4.15-7.52-5.13,5.14-4.49,3.81-.67-.75ZM113.71,202.62c1.4-1.5,2.75-3.3,3.48-5.23l-3.48,5.23Z"/><path class="cls-1" d="M223.47,173.44c-10.41-6.18-13.14-20.28-9.03-30.27,9.93,5.23,9.59,20.77,9.03,30.27Z"/><path class="cls-1" d="M223.47,185.19v8.71c-7.09-5.42-15.58-12.29-14.81-22.21,3.11,6.13,8.6,10.71,14.81,13.5Z"/><path class="cls-1" d="M205.72,213.5c-2.52-.82-2.82-12.66-3.26-15.03,10.24,6.54,28.17,17.25,3.26,15.03Z"/><path class="cls-1" d="M208.44,162.66l.43-.54c.94,7.53,5.71,14,11.11,19.05-7.03-2.09-13.15-11.44-11.55-18.51Z"/><path class="cls-1" d="M201.76,193.18c5.23,3.66,13.66,3.94,16.04,10.96-4.33-5.86-15.8-4.65-17.42-12.19.35-.38,1.25,1.14,1.37,1.23Z"/><path class="cls-1" d="M82.56,209.8c-9.33-6.3-3.45-.91-2.83-5.76-.46-1.8-1.12,1.1-1.52,1.3-7.3-1.34,7.34-10.22,4.35,4.46ZM81.91,207.84c1.41-5.52-4.01-7.77-4.75-3.59.56,1.79.85-1.22,1.32-1.48,2.43-1.33,2.87,2.71,1.26,3.97l2.18,1.09Z"/><path class="cls-1" d="M90.62,209.8c-2.55-.01-4.92,1.18-5.47,3.67-5.56.72,2.88-5.57-.41-9.12l5.88,5.45ZM88.44,209.58l-2.17-1.96c.5,1.96-2.69,3.93-2.08,5.23.91-.99,2.72-3.31,4.25-3.27Z"/><path class="cls-1" d="M82.34,213.5c-2.22-3.03-6.94,2.7-5.81-2.22,1.37-6,7.29.28,5.81,2.22ZM81.03,211.11c-1.62-.64-2.7-2.53-3.53.28-.65,2.2,1.87-.61,3.53-.28Z"/><path class="cls-1" d="M199.29,193.25c-2.5-4.41-5.68-7.5-9.36-10.88,4.54,1.63,8.88,5.87,9.36,10.88Z"/><polygon class="cls-1" points="37.92 213.5 35.31 213.4 38.35 204.58 37.92 213.5"/><path class="cls-1" d="M77.99,200.43c-1.9-.28-3.19,3.98-2.94,4.79-1.49-.07-1.75-6.4-1.2-6.97.17-.17,4.34,1.83,4.14,2.17ZM76.03,200.44c-1.89-.56-1.52.28-1.52,1.74l1.52-1.74Z"/><path class="cls-1" d="M91.71,213.5c-.49.44-1.95-.41-2.28-.44-.04,0-.42.9-.76.44-.57-.75,1.14-.97,1.3-1.3-1.62-.66-2.62,1-3.41,1.27-2.16-1.72,5.7-4.35,5.15.03Z"/><path class="cls-1" d="M83.65,204.58c1.34.95,1.51,3.36.11,4.35-.44.6.08-4.12-.11-4.35Z"/><path class="cls-1" d="M95.41,213.5c-2.41-.12-2.71.65-3.05-2.17l3.05,2.17Z"/><path class="cls-2" d="M182.96,62.37c-13.05,1.54-6.35-20.48-19.16-32.44,4.19,7.83,6.8,16.42,7.84,25.26-4.97-6.69-8.52-15.13-14.59-20.8l14.59,26.68-8.92.32-7.84-14.04,4.34,14.9-5.65,2.52,7.4.99,13.84,21.44c-1.26-7.11-5.04-15.14-8.82-20.9,9.88,1.14,21.54,8,26.78,16.67,4.06,4.17,9.42,6.69,11.09,12.87l-13.26-10.59c2.24,6.32,13.11,9.11,14.59,15.79-3.31-3.04-6.95-5.99-11.1-7.84,7.24,15.96,16.99,29.57-.76,42.57-15.55-4.65-23.05-16.25-29.33-30.12-3.15-9.51-2.53-3.3-1.89,1.89,1.67,15.08,14.54,25.24,27.41,30.63-8.14,9.68-24.05-4.48-30.6-10.67-11.24-12.44-11.08-29.96-22.32-42.35,16.74,8.68,14.19,35.84,31.14,43.34-11.15-8.57-12.8-23.03-18.3-35.06,3.92,3.58,6.09,8.75,8.07,13.6-1.35-19.71-23.32-23.69-33.54-37.23,10.17,10.64,28.1,10.22,33.54,25.48-2.27-15.95-23.99-18.43-32.9-29.08,3.54-4.8,5.48.59,9.38,1.86-10.07-10.09,20.82,8.92,21.35,14.37-1.35-10.36-19.99-18.54-23.54-26.01,2.62-6.63-2.98-12.02-7.94-15.58l.11,5.01c-4.42-9.27-12.13-16.81-22.44-18.94,8.28,3.99,14.62,9.82,18.95,17.96-3.32-1.89-6.98-3.31-9.58-6.21-1.91,2.88,3.68,12.95.93,10.39-3.23-5.61-6.9-12.68-13.56-15.29,4.83.92,9.08,4.13,12.09,7.95-3.57-10.61-18.26-14.99-26.68-8.28,6.88-1.25,14.23,2.91,18.62,8.06l-3.59-1.42,5.22,11.22c-4.44-3.53-3.63-8.82-12.63-9.8l2.83,6.86c-2.02-.3-1.69-3.71-2.87-5.4-2.64-4.26-8.55-5.82-12.8-6.37,0,0,3.04,6.65,3.04,6.65l-11.32-4.79,3.26,7.4-11.54.33c2.33-8.47,11.37-8.27,16.44-13.61l-.44,1.96c6.19-1.33,10.28-6.46,16.88-6.53-5.01-1.8-10.47.14-14.81,2.61,3-4.4,8.49-6.63,13.5-7.84-3.86-.79-7.68,1.08-11.11,2.61,27.2-20.42,61.61,5.7,66.21,35.06-5.49-8.39-7.92-19.46-16.34-25.59,8.02,15.8,18.4,30.93,25.04,47.36-5.47-32.65-28.31-81.53-69.25-63.15,17.61-14.67,44.69-5.06,58.58,10.23-9.64-14.79-29.21-23.88-46.82-19.6,10.34-4.98,22.47-3.86,33.1-.44-5.75-3.95-12.98-4.99-19.82-5.44,35.69-6.97,66.34,24.7,69.91,58.58ZM133.09,45.82c-4.8-12.27-14.83-22.94-28.75-23.51,12,4.38,21.91,12.8,28.75,23.51ZM165.97,105.49c-.98-8.06.04-16.58-3.26-24.17.86,8.23-3.74,17.62,3.26,24.17ZM176.64,112.68l-9.8-21.56c.75,7.73.46,19.74,9.8,21.56ZM200.82,118.34c-2.27-9.31-6.54-17.95-12.09-25.69,2.37,9.13,5.03,18.98,12.09,25.69ZM173.51,96.21c-.16-.2-.59-.33-.57-.73,3.04,13.43,18.35,20.6,27.01,30.27-5.66-12.59-19.71-18.06-26.44-29.53ZM191.45,132.5c-8.68-6.48-10.83-17.58-21.12-21.78,2.02,11.05,10.38,19,21.12,21.78Z"/><path class="cls-2" d="M61.65,112.03c.22-.39,1.17-3.06,1.74-3.05,1.16.73.65,6.24,1.92,4.2,1.36-2.43-1.76-4.63-1.05-6.81-.07-.12-2.16-.35-2.65-.51-23.76-5.75,20.35-28.13-6.71-37.61.78-1.24,2.21-10.3,2.63-10.65,1.3-.08,1.76-.17.64-1.43,5.1-6.6,1.18,3.49,14.7-.55,1.19-.87,1.87-4.65,3.04-2.18.42.29,2.47,1.49,2.51,1.64.1.49-1.09.75-.43,1.3.33.27,6.67.84,7.51.77,5.66-.41,6.58-5.77,11.86-4.25l-7.83,7.07c8.15-.54,16.34,4.26,23.95,1.19.95.91,3.2,3.57,2.4,4.91,6.43.8,6.39,14.83,11.46,18.7,5.61,6.52-4.16-2.79-4.71-4.76,4.32,6.97-27.97,37.52-6.55,26.22,2.26-1.36,10.13-8.49,11.34-8.71,5.43,2.34,2.47,2.79,6.38-4.71-.64-5.8,4.88-2.77,2.89,1.14-.6,1.41-3.24,3.04-1.97,4.56,1.76,2.11,6.13-2.44,6.51-2.38,6.62,6.56-3.34,15.3-9.44,8.92-.94,25.66-36.99,39.7-58.26,40.93-10.46-.55-6.83-11.38-10.13-18.07,2.21-.32,2.57,4.05,2.83,4.35,3.09-3.25,15.24,1.47,4.79-4.46,12.21-7.1-13.31,4.77-8.25-5.41,5.47-3.82,13.52.63,19.35-1.33.05-1.68-3.05-1.21-4.35-1.53-4.54-1.28-10.39-6.74-14.53-3.42-6.27-2.42-1.3,4.02-2.03,6.37-2.53-5.21-2.08-11.01-3.49-16.66,3.09.6,4.52,3.43,3.92,6.21ZM103.25,67.39c-8.05-9.31-42.38-1.33-30.66,5.18,15.25-8.89,14.28-8.24,30.66-5.18ZM85.72,81.97c-12.1,1.04,9.63,1.53,14.7-5.44-5.91.2-12.37-2.7-18.29-3.71,5.42-1.57,10.44,1.61,15.46,3.05-3.59-3.07-16.89-7.99-18.95-1.74l-1.3-.87.65,1.96-1.74-.21c.2.92,2.85,1.74.22,1.74,1.94.93,1.01.81.87,2.61l1.96-1.74c.43,1.77-.76,2.61-1.08,4.13l3.27-.44-.87-1.96c2.55,4.99,7.19.31,6.31-2.61.87.01,6.76,1.16,3.49,3.05l3.05-1.3c-1.65,2.05-5.28,2.89-7.73,3.48ZM68.62,106.8c.85,2.2,7.34-2.33,4.46-6.1.23,2.52-1.55,5.78-4.46,6.1ZM68.41,105.71c1.18-3.6-9.3-4.23-7.81-1.77.27.45,6.7,1.23,7.81,1.77Z"/><path class="cls-2" d="M49.46,153.51c-.43-3.65-1.92-7.46-4.14-10.34,7.25,24.12-8.99,37.51-23.15,52.96-.24.71-.61,3.59-.8,3.77-8.08,4.74-.03-12.02,2.09-14.9.82-1.22,9.55-11.2,9.01-11.78-11.03,4.65-21.55,13.18-20.69,26.46,1.95,7.76-3.33,3.05-4.51-1.15-3.72-7.86-.43-15,4.52-21.18-.41-.42-7.98,6.03-8.71,6.64,20.78-21.52,22.21-2,9.77-35.02-9.76-27.35,20.51-26.3,13.6-41.03-1.76-23.62,21.67-29.1,20.41-53.4.18-.21,3.4,2.33,3.46,2.54-1.05,2.44.6,5.33.03,7.91,1.48-1.02,2.36-3.19,3.05-4.79-3.05,13.94-.94,29.55-10.67,41.37l7.62-8.61c-4.13,12.47-15.13,20.02-21.77,30.93,8.86-5.48,15.01-14.1,22.42-21.23-.47,3.78-3.63,6.49-5.66,9.47l3.26-1.53c-.72.72-7.5,7.17-6.75,7.95.52.54,11.46-7.52,11.87-9.14-.94,5.72-9.5,9.1-13.08,11.74-2.68,3.29.03,13.3,3.17,16.13l8.28-13.28-5.22,14.37c3.85-3.45,6.48-8.23,8.27-13.06.26,5.69-4.14,10.64-6.93,14.97,1.34,5.01,3.06,11.07,1.27,16.39-.08-1.01.12-2.17,0-3.16ZM40.74,96.13l7.41-22.86c-5.01,6.33-8.3,14.67-7.41,22.86ZM29.94,112.99c9.07-7.88,1.86-21.84,9.93-31.45-9.43,7.03-15.83,22.27-9.93,31.45ZM38.35,91.56c-2.84,2.47-2.48,8.66-2.17,12.63,2.31-2.83,2.3-9.47,2.17-12.63ZM15.05,152.09c-1.24-11.92,7.09-23.51,12.63-32.66-11.9,5.8-21.34,19.85-12.63,32.66ZM32.91,125.31c-9.22,6.83-16.48,21.65-10.88,33.1-.04-2.07,4.95-6.31,5.18-7.12-1.99-8.37,1.53-18.97,5.71-25.97ZM38.13,125.53c-2.66,3.15-2.91,24.38,4.1,13.21-1.2-2.81-5.07-9.27-4.1-13.21ZM25.97,166c.99.48,2.61-2.85,2.81-3.55-1.37-9.45,10.6-11.18,13.93-19.28-4.42,6.93-24.6,13.12-16.74,22.83ZM43.79,145.78c-3.14,2.79-11.14,16.06-9,20.88,8.27-2.09,11.08-13.6,9-20.88ZM23.32,168.86c.39-.43-.78-1.85-1.09-1.52-.17.18.52,2.14,1.09,1.52ZM20.06,176.49c-7.91,3.13-15.41,13.28-10.56,21.77.22-7.39,5.39-16.61,10.56-21.77Z"/><path class="cls-2" d="M155.52,155.58c1.25-7.05,11.7-2.07,16.66-1.75,62.11,3.35,56.84-91.34-2.07-89.93,62.36,7.66,51.34,105.85-12.85,80.57.47,1.4.88,2.89.43,4.35l-.98-4.13c-1.77.99-5.09,8.68-7.07,5.99-.04-.52,6.44-6.61,6.31-8.38,66.16,20.65,66.93-77.66,5-78.39-.05-.58,0-.36.33-.43,64.89-13.76,81.28,95.17,11.55,91.89-5.68-.84-13.2-4.33-17.31.22Z"/><path class="cls-2" d="M102.6,5.33c-4.26,1.52-8.67,3.35-11.89,6.47-3.15-.46-8.62-.53-11.84,1.37,16.01-.81,2.93,2.99-.87,12.31-4.03-1.99-9.19-1.14-12.85,1.51,4.3-1.27,10.6-1.54,10.23,4.68-7.97-6.63-17.24,2.92-20.9,9.8-4.8-12.78,14.76-22.53,25.91-23.3-3.72-1.57-7.77-.17-11.54.44,8.89-8.82,21.11-13.88,33.76-13.28Z"/><path class="cls-2" d="M91.93,59.33c4.63-5.22,7.2-5.2,12.63-5.66-12.98-6.54-12.86,4.19-24.83,1.95,2.3-2.82,4.83-4.84,8.27-6.09-6.55-1.42-13.76-.62-15.79-8.72,13.6,4.19,9.5,9.04,26.59,10.44-8.27-6.22-5.99-12.48,1.65-3.18.12,5.64,6.65,5.32,10.85,6.24-4.7-1.89-9.67-7.56-10.45-12.41,4.63,1.59,10.57,4.89,9.8,10.89l-6.97-8.49c-.81,1.15,3.55,3.14.88,2.94.06.36,4.96,2.5,1.52,2.94,3.98,2.06,7.24,5.74,11.98,2.4-.08-.15-1.3.05-1.09-.66,9.86,4.16,4.72-.07,1.85-5.44,1,4-1.66-.16-2.4-1.31v1.3s-3.27-3.04-3.27-3.04l1.42,2.5h-.87c.51.83,3.73,1.29,1.52,1.85.67-.44,3.31,1.13,3.05,1.52-.06.1-.86-.28-.65.44,1.4.18,2.8.86,3.7,1.96-5.69-.06-9.95-5.37-9.8-10.89,5.46,3.45,11.18,6.46,12.09,13.5,3.14,2.09,6.14,5.09,8.04,8.29.73.31,2.99-.18,1.52.84-2.57,1.79-4.25-4.19-5.39-5.35-1.18-.48-9.37-7.28-6.13-1.82,2.77,1.2,2.22,1.5-.45,1.19-2.24,2.84-6.89.98-7.42-2.28-1.41-.8-17.25-1.75-14.24.44-1.98,0-2.8,1.24-4.36,2.61l2.94-1.3c-2.24,4.18,4.34-3.86,1.96.65.93-1.1,1.66-2.57,3.38-2.5-1.99,4.36-7.56,4.61-11.54,4.25ZM78.42,44.95c-.26.3-3.21-2.12-3.92-1.96.44.88,3.37,1.85,1.31,2.17,1.42.12,3.69.36,2.18,1.74,1.73-.05,3.52.18,5.01,1.09-.24-.17-4.13-5.44-2.61-2.18-.45-.09-2.39-3.11-1.96-.87ZM96.63,45.91c-.22-.18-1.26-1.14-1.44-.96.05.49,2.44,2.54.87,2.61.63.08,3.49,1.48,1.52,1.74,6.68,4.6,1.66-.74-.96-3.39ZM93.67,50.62l-7.19.22,1.74.87c-1.48-.03-2.12,1.12-3.7.44-.3.67.7.31.65.54-.11.5-2.54,1.27-2.61,2.07.52-.05,4.33-2.53,2.94-.22.92-.47,3.8-3.9,2.18-.22l1.96-2.18.21.65c.96-1.39,2.58-1.3,3.81-2.17ZM120.17,57.09c2.51-2.97-4.18-4.59-4.86-1.9-.56,2.21,3.46,3.55,4.86,1.9Z"/><path class="cls-2" d="M48.81,170.6c4.86-2.93,8.2-11.2,11.32-13.83-5.27,19.34-22.65,27.7-35.93,40.18,1.84-6.87,9.07-9.31,13.69-13.85,9.56-13.71,16.35-29.16,23.33-44.29,1.71,12.88-8.99,20.69-12.41,31.79Z"/><path class="cls-2" d="M38.2,195.72c-8.47,8.19-1.96-5.76,7.98-6.28,13.01-5.48,20.83-16.16,24.18-29.72-1,18.39-16.42,30.5-32.16,36Z"/><path class="cls-2" d="M157.56,156.75c12.28-9.1-2.6,14.2-2.59,16.03-8.24-7.94,3.08-7.48,2.59-16.03Z"/><path class="cls-2" d="M73.63,188.03c-3.21,12.18,3.11,10.25-15.68,6.2l15.68-6.2Z"/><path class="cls-2" d="M175.34,157.32c.51,10.81,1.67,10.4,2.84.23,3.54-1.93-3.08,11.39.2,10.22-.73,4.69,2.32,10.59,4.58,13.93-.45.46-4.73-3.99-5.18-4.72-1-2.13-6.41-21.23-2.44-19.66Z"/><path class="cls-2" d="M74.87,47.94c-.15.23-.76.31-.8.72,2.22-.63,7.19-.14,1.96,1.2.6.79,3.8,3.6,5,2.51-.52,4.05-5.64-1.37-6.18-1.51,0,0-2.96,3.91-2.96,3.91.59-3.7,2.91-5.12-1.41-7.19,6.68,9.42-10.96,10.86-5.89.44-4.48,4.11-1.35,1.01-.76,6.97-4.94-7.28-3.42,1.55-8.5-.34-.49-1.05,1.01-.61,1.84-.99.32-.15,2.35-2.24,2.45-2.56.33-1.11-2.77-.41-1.43-1.43s2.91-.25,4.34-.12c-5-2.05-.47-1.85,2.29-1.64,2.12.21,9.79-2.32,10.06.05ZM70.09,48.5c-3.84-1.94-7.06,2.24-4.74,5.5,4.16,1.33,7.1-1.57,4.74-5.5Z"/><path class="cls-2" d="M92.58,49.09c-5.84-.8-10.39-5.5-11.98-10.88,5.63-.04,10.78,5.4,11.98,10.88ZM87.72,43.5c-1.18-1.15-3.2-2.45-4.5-3.55l3.05,3.59h-1.09s3.48,2.4,3.48,2.4l-1.52.32c6.39,2.75,3.17.34.58-2.76Z"/><path class="cls-2" d="M113.48,57.15c-1.29,1.13-6.74-1.9-3.05.44-1.34,1.53-6.17-2.69-3.48.65l-2.83.66c1.4.67,2.94-.14,4.35-.22l-1.2,1.52c2.09-1.51,4.06-2.01,6.64-1.96-3.28,5.34-8.59,2.42-13.28,1.52,4.15-3.73,7.43-6.14,12.85-2.61Z"/><path class="cls-2" d="M147.9,149.92c1.97-7.76,2.26-15.33,2.39-23.3,3.13,7.73,2.84,16.67-2.39,23.3Z"/><path class="cls-2" d="M52.07,41.47l-.87,1.96-.22-3.92-.65,2.17-.87-2.39c-.13.54,2.11,6.05.65,5.98,0,0,2.39,2.84,2.39,2.84-5.19-.87-4.37-9.59-3.7-13.83,2.59,4.71,6.5,7.31,4.79,13.5-1.77-1.32-1.56-4.44-1.52-6.31Z"/><path class="cls-2" d="M152.25,162.98c-.5-.51,2.05-2.63,2.23-3.1.75-1.96-4.29-6.11-4.41-5.28-.04.26,2.65,3.82-1.74,2.61l2.39,2.94c-2.13-1.95-4.56-4.45-7.4-5.01,2.25-9.6,17.99,4.81,8.93,7.84ZM147.46,152.75c-1.71-1.55-3.74,3.27-1.96,2.52l1.96-2.52Z"/><path class="cls-2" d="M125.25,43.54c1.95.14,6.81,6.19,5.86,10.65-.68,1.33-.72,3.35-.74,4.48-1.82-2.27.25-3.63-.14-6.83-.06-.5-1.32-4.51-1.49-2.53l-2.18-4.35c-.48,1.28.96,2.89,1.31,4.13-4.66-3.59,4.36,4.56-1.09,1.2,1.53.06,3.88,5.54,2.72,5.77-2.97-1.64-4.96-8.87-4.25-12.52Z"/><path class="cls-2" d="M117.95,64.77c-.11,0-.63.59-.54-.1,1.35-3.78,6.55-7.63,10.45-4.69l-3.17.23c-2.65-.72.37.37-.09.75l-3.27.33,1.3.65c-1.04.2-2.48.81-3.04,1.74l3.16-1.52-.23,1.08c.7-.57,2.47-2.42,1.53,0,.42-.92,3.53-3.5,1.85-1.31l2.51-1.52c-1.01,4.62-6.61,4.53-10.46,4.35Z"/><path class="cls-2" d="M53.82,50.18c-1.47-1.4,5.78-2.22,2.83-2.5.31-.49,4.84-2,1.96-2.07.1-.21,2.13-1.39,1.63-1.74l-3.27,2.61c.23-2.76-.95.31-1.31.87l-.21-1.3-1.31,2.18c.25-5.11,6.07-4.2,8.6-7.4-.66,4.34-4.28,9.19-8.93,9.36Z"/><path class="cls-2" d="M173.6,143.6h-3.7c.47-1.32-2.87-7.31-2.61-7.62,2.45,1.07,6.84,4.23,6.31,7.62Z"/><path class="cls-2" d="M73.19,34.29c-6.36.59-11.34,2.67-15.03,8.05,2.59-5.88,8.3-10.68,15.03-8.05Z"/><path class="cls-2" d="M199.07,163.2c.68-4.07-4.8-9.5-.76-11.75,1.53,3.74,1.76,7.86.76,11.75Z"/><path class="cls-2" d="M52.94,55.62c-.31-1.78-7.91-6.45-3.27-2.72.09.81-.6-.39-1.09,0,1.69.79,2.66,1.94,3.92,3.27-2.01,1.29-7.14-6.13-6.75-6.42,1.35-1.01,8.1,3.35,7.18,5.88Z"/><path class="cls-2" d="M61,75.66c-.2.15-4.05-.03-4.57,1.74l-1.96-5.44c.72-.21,7.45,3,6.53,3.7Z"/><path class="cls-2" d="M56.33,171.6c-8.76,10.13,3.97-6.5,5.54-11.67-.78,4.39-2.83,8.2-5.54,11.67Z"/><path class="cls-2" d="M164.01,142.73c-3.93.37-1.8-5.48-2.17-7.62.76.8,2.64,7.13,2.17,7.62Z"/><path class="cls-2" d="M52.47,50.01c.47,3.18-2.71-.51-3.89-.58-1.31-5.05,2.52-.42,3.89.58Z"/><path class="cls-2" d="M127.42,55.84c-.24.26-4.84-4.11-3.48-5.66l3.48,5.66Z"/><path class="cls-2" d="M145.72,158.63c2.66-.32,2.17,1.67.76,2.83-1.06-.61-1.35-1.71-.76-2.83-1.04,1.89-3.05-1.84-3.48-2.39.17-.16,3.63.79,3.48,2.39Z"/><path class="cls-2" d="M83.43,50.18c-.62,1.89-2.01.62-2.7.65-.71,1.02-3.13.01-2.2-.65,0,0,4.9,0,4.9,0Z"/><path class="cls-2" d="M55.12,44.52c-1.11-1,3.11-7.14,3.49-6.75l-3.49,6.75Z"/><path class="cls-2" d="M62.52,78.49l-4.57-.76c1.47-1.61,3.72-1.3,4.57.76Z"/><path class="cls-2" d="M52.94,57.59l-1.74,3.92c-.41-1.65-.53-4.04,1.74-3.92Z"/><path class="cls-2" d="M61.87,81.98c1.32,1.5-3.34,3.11-2.83-1.09,1.47.95.52,2.42,2.83,1.09Z"/><path class="cls-2" d="M113.27,50.18l2.61,1.85c-1.8,1.34-3.04.27-2.61-1.85Z"/><path class="cls-2" d="M56.64,56.93c-2.03.76-2.62-.17-2.39-2.17.1-.13,2.83,1.61,2.39,2.17Z"/><path class="cls-2" d="M133.46,60.7c1.53,3.18-2.42-.68-3.42-1.59.73-.28,3.12,1.11,3.42,1.59Z"/><path class="cls-2" d="M57.95,51.49c-.35,1.44-4.58,1.07-3.7.22l3.7-.22Z"/><path class="cls-2" d="M137.88,64.99c-.61-.08-3.8-1.55-3.05-2.39.31-.35,2.89,1.89,3.05,2.39Z"/><path class="cls-2" d="M151.16,163.64c.49.6-.95,3-1.52,2.39-.2-.21.89-2.43,1.52-2.39Z"/><path class="cls-2" d="M147.03,162.55c.03-.39,1.02-2.54,1.41-2.39.86.32-.79,2.39-1.41,2.39Z"/><path class="cls-2" d="M62.53,80.24c.19.15-.78,2.07-1.74.32-.11-.53,1.67-.38,1.74-.32Z"/><path class="cls-2" d="M60.35,85.68l-.87,1.3c.02-.75-.23-1.59.87-1.3Z"/><path class="cls-2" d="M60.56,84.81c-.35.55-1.62-.2-1.74-.65l1.74.65Z"/><path class="cls-2" d="M148.34,162.98c-.24-.25.79-1.17.87-1.09.24.25-.79,1.17-.87,1.09Z"/><path class="cls-2" d="M87.68,19.04c.11.08.11.14,0,.22v-.22Z"/><path class="cls-2" d="M81.91,207.84l-2.18-1.09c1.62-1.26,1.17-5.31-1.26-3.97-.47.26-.75,3.27-1.32,1.48.69-4.14,6.16-2.02,4.75,3.59Z"/><path class="cls-2" d="M88.44,209.58c-1.57-.02-3.33,2.29-4.25,3.27-.62-1.3,2.58-3.27,2.08-5.23l2.17,1.96Z"/><path class="cls-2" d="M81.03,211.11c-1.66-.34-4.18,2.48-3.53.28.83-2.81,1.91-.92,3.53-.28Z"/><path class="cls-2" d="M76.03,200.44l-1.52,1.74c0-1.47-.37-2.3,1.52-1.74Z"/><path class="cls-1" d="M191.45,132.5c-10.74-2.77-19.1-10.73-21.12-21.78,10.29,4.2,12.44,15.29,21.12,21.78Z"/><path class="cls-1" d="M173.51,96.21c6.73,11.47,20.78,16.94,26.44,29.53-8.66-9.66-23.97-16.84-27.01-30.27-.02.41.41.53.57.73Z"/><path class="cls-1" d="M176.64,112.68c-9.35-1.83-9.05-13.82-9.8-21.56l9.8,21.56Z"/><path class="cls-1" d="M133.09,45.82c-6.84-10.71-16.75-19.13-28.75-23.51,13.92.57,23.95,11.25,28.75,23.51Z"/><path class="cls-1" d="M200.82,118.34c-7.06-6.71-9.72-16.56-12.09-25.69,5.54,7.74,9.82,16.38,12.09,25.69Z"/><path class="cls-1" d="M165.97,105.49c-7-6.55-2.4-15.94-3.26-24.17,3.3,7.59,2.29,16.11,3.26,24.17Z"/><path class="cls-1" d="M68.41,105.71c-1.11-.55-7.53-1.33-7.81-1.77-1.5-2.45,8.99-1.82,7.81,1.77Z"/><path class="cls-1" d="M68.62,106.8c2.93-.32,4.69-3.6,4.46-6.1,2.88,3.77-3.62,8.3-4.46,6.1Z"/><path class="cls-1" d="M29.94,112.99c-5.9-9.2.5-24.4,9.93-31.45-8.08,9.62-.86,23.57-9.93,31.45Z"/><path class="cls-1" d="M32.91,125.31c-4.18,7.01-7.7,17.59-5.7,25.97-.23.81-5.22,5.06-5.18,7.12-5.6-11.44,1.67-26.27,10.88-33.1Z"/><path class="cls-1" d="M15.05,152.09c-8.71-12.81.74-26.87,12.63-32.66-5.55,9.18-13.86,20.72-12.63,32.66Z"/><path class="cls-1" d="M43.79,145.78c2.07,7.28-.73,18.79-9,20.88-2.15-4.8,5.88-18.13,9-20.88Z"/><path class="cls-1" d="M25.97,166c-7.86-9.71,12.32-15.91,16.74-22.83-3.33,8.11-15.29,9.82-13.93,19.28-.21.71-1.83,4.04-2.81,3.55Z"/><path class="cls-1" d="M20.06,176.49c-5.18,5.16-10.34,14.38-10.56,21.77-4.85-8.49,2.65-18.64,10.56-21.77Z"/><path class="cls-1" d="M38.13,125.53c-.97,3.93,2.91,10.42,4.1,13.21-7.01,11.17-6.76-10.06-4.1-13.21Z"/><path class="cls-1" d="M40.74,96.13c-.9-8.2,2.39-16.53,7.41-22.86l-7.41,22.86Z"/><path class="cls-1" d="M38.35,91.56c.13,3.18.14,9.79-2.17,12.63-.31-3.96-.66-10.17,2.17-12.63Z"/><path class="cls-1" d="M23.32,168.86c-.56.62-1.25-1.34-1.09-1.52.3-.33,1.48,1.09,1.09,1.52Z"/><path class="cls-1" d="M120.17,57.09c-1.39,1.65-5.41.31-4.86-1.9.68-2.69,7.37-1.07,4.86,1.9Z"/><path class="cls-1" d="M93.67,50.62c-1.23.87-2.85.78-3.81,2.17l-.21-.65-1.96,2.18.54-1.42c-.2-.99-2.44,1.63-2.72,1.64,1.4-2.32-2.43.17-2.94.22.07-.8,2.5-1.57,2.61-2.07.05-.23-.95.13-.65-.54,1.58.69,2.22-.47,3.7-.44l-1.74-.87,7.19-.22Z"/><path class="cls-1" d="M78.42,44.95c-.44-2.24,1.51.79,1.96.87-1.52-3.27,2.39,2.02,2.61,2.18-1.49-.91-3.27-1.14-5.01-1.09,1.52-1.38-.77-1.63-2.18-1.74,2.06-.32-.87-1.3-1.31-2.17.71-.16,3.66,2.25,3.92,1.96Z"/><path class="cls-1" d="M96.63,45.91c2.63,2.66,7.64,7.99.96,3.39,1.97-.26-.9-1.66-1.52-1.74,1.57-.06-.83-2.12-.87-2.61.17-.18,1.21.78,1.44.96Z"/><path class="cls-1" d="M148.76,184.1c-.45-3.62-1.03-6.77-4.13-9.14,5.34,1.03,5.89,4.53,4.13,9.14Z"/><path class="cls-1" d="M141.36,188.68c.68-2.06-1.16-6.08-2.18-6.97,3.5.11,4.19,4.58,2.18,6.97Z"/><path class="cls-1" d="M133.96,194.56v-5.44c1.55.96,1.58,4.64,0,5.44Z"/><path class="cls-2" d="M113.27,191.51c-3.84,4.58-4.43,5.86.67.75,3.44.03-4.19,5.67-4.15,7.52,8.34-9.61,8.53-7.02,2.78,2.46-2.41,4.17-4.42,3.48-7.71.81.03-2.44,2.36-3.68,3.29-5.67-12.69,9.58,1.26,20.2,10.99,2.39-2.51,9.49-15.67,16.99-16.93,2.34,1.03-2.27,8.43-11.29,11.05-10.61ZM108.6,203.83c-1.09,3.53,5.35-4.36,5.53-6-1.66,1.8-4.17,4.04-5.53,6Z"/><path class="cls-2" d="M129.82,156.01c-.16.32-5.84,2.23-5.88,3.92-2.03-4.92,2.74-9.22,5.88-3.92Z"/><path class="cls-2" d="M113.71,202.62l3.48-5.23c-.73,1.93-2.08,3.73-3.48,5.23Z"/><path class="cls-1" d="M108.6,203.83c1.36-1.96,3.87-4.2,5.53-6-.17,1.63-6.63,9.54-5.53,6Z"/><path class="cls-1" d="M70.09,48.5c2.37,3.93-.58,6.82-4.74,5.5-2.32-3.26.9-7.44,4.74-5.5Z"/><path class="cls-1" d="M87.72,43.5c2.6,3.09,5.85,5.52-.58,2.76l1.52-.32-3.48-2.4h1.09s-3.05-3.59-3.05-3.59c1.31,1.1,3.32,2.4,4.5,3.55Z"/><path class="cls-1" d="M147.46,152.75l-1.96,2.52c-1.78.76.25-4.07,1.96-2.52Z"/><path class="cls-1" d="M85.72,81.97c2.45-.59,6.07-1.43,7.73-3.48l-3.05,1.3c3.27-1.88-2.61-3.04-3.48-3.05.89,2.93-3.77,7.6-6.31,2.61l.87,1.96-3.27.44c.33-1.53,1.52-2.37,1.08-4.13l-1.96,1.74c.13-1.8,1.06-1.68-.87-2.61,2.64,0-.02-.82-.22-1.74l1.74.21-.65-1.96,1.3.87c2.06-6.25,15.36-1.34,18.95,1.74-5.02-1.44-10.04-4.62-15.46-3.05,5.92,1,12.39,3.9,18.29,3.71-5.1,6.98-26.72,6.49-14.7,5.44ZM82.34,73.92l-1.3-1.31c-.14,1.15.14,1.45,1.3,1.31ZM86.05,77.62c.81-.8-1.05-2.3-1.71-1.28-.77,1.19,1.37,1.61,1.71,1.28ZM81.9,77.4c-2.17,3.16,4.31,4.68,3.92.44-.65-.11-3.25,3.15-3.92-.44Z"/><path class="cls-1" d="M103.25,67.39c-16.42-3.08-15.45-3.67-30.66,5.18-11.73-6.52,22.65-14.48,30.66-5.18Z"/><path class="cls-2" d="M81.9,77.4c.67,3.58,3.28.32,3.92.43.38,4.25-6.1,2.71-3.92-.43Z"/><path class="cls-2" d="M86.05,77.62c-.34.33-2.48-.09-1.71-1.28.66-1.02,2.52.47,1.71,1.28Z"/><path class="cls-2" d="M82.34,73.92c-1.16.14-1.44-.16-1.3-1.31l1.3,1.31Z"/></svg>