<?xml version="1.0" encoding="UTF-8"?>
<svg id="Layer_1" data-name="Layer 1" xmlns="http://www.w3.org/2000/svg" viewBox="0 0 330.65 330.74">
  <defs>
    <style>
      .cls-1 {
        fill: #f9fcfc;
      }

      .cls-2 {
        fill: #289e9a;
      }
    </style>
  </defs>
  <path class="cls-2" d="M330.65,160.24v9.04c-.53.34-.32,1.23-.33,1.77-.84,80.06-64.48,148.33-143.24,158.33l-17.23,1.33c-2.79-.07-5.61.1-8.4,0C71.67,327.51.07,256.22,0,165.58-.07,77.07,70.17,2.83,159.02.08c92.27-2.86,168.9,67.54,171.63,160.15ZM263.82,267.59c-.16-1.7.12-3.6,0-5.33l-.97.97c-.54-5.49,1.29-10.52,2.26-15.82-.68-.02-1.29-.17-1.55.54-1.15,3.09-1.11,8.09-1.83,11.41-.35,1-.83-.72-.96-.99-.4-.88-1.47-3.87-1.47-4.66v-6.3c-2.87-.78-2.39,2.24-2.27,4.37.24,4.27,2.31,7.33,2.84,10.72.27,1.74-.06,3.65.08,5.41.38,4.62,2.58,8.05,5.02,11.79-.11.26-4.09,3.6-4.4,3.72-1.13.46-6.2-2.82-7.24-3.73-9.61-8.38-2.1-22.75,1.14-32.41l-5.8-1.13c-.07.28-.06.66-.22.89-6.65,9.26-9.64,16.96-5.63,28.3,1,2.82,2.42,5.21,4.2,7.58-5.42-2.44-11.56-3.37-16.34-7.07-1.11-.17-1.05,3.01-.3,3.86.43.49,3.05,1.89,3.83,2.31,4.97,2.66,10.87,4.09,15.08,8.17.34.33.75.56.64,1.13l-4.59,2.54c-3.02-1.02-6.02-2.11-8.95-3.35-2.38-1.01-4.95-2.67-7.13-3.53-.33-.13-.58-.25-.95-.17.04,1.26-1.19,3.34-.32,4.36l11.94,6.29-17.93,8.39-.46-.46,5.47-28.44c.89-6.07-4.27-9.76-7.55-14.07-3.94-5.18-7.88-11.74-12.46-16.28-2.19-2.17-3.95-3.29-7.1-2.24-2.26.75-9.13,4.38-11.41,5.7-1.4.82-3.54,1.99-3.44,3.8,2.43.13,6.84,3.56,8.86,3.58.43,0,2.43-.48,2.68-.73.65-.65.05-2.73,1.04-3.15,1.49,5.44,7.13,11.01,11.97,13.7,1.4.78,3.13,1.21,4.52,1.95.45.24.79-.02.63.81-6.61-.11-11.96-4.55-17.54-7.48-3.28-1.72-9.73-5.34-13.12-5.94-4.79-.85-7.92,5.08-9.05,8.9,7.07.91,12.81,5.44,18.97,8.63.36.19.39.58.66.71l7.82,2.6c-.92.17-1.8.57-2.74.65-5.58.45-15.12-6.48-20.83-8.55-3.22-1.16-6.43-2.06-8.85,1.15-.7.92-4.36,7.75-3.73,8.37,3.09-.98,5.88-.14,8.8,1.05,6.04,2.45,10.23,5.6,16.92,7.63.53.16.91-.26.75.69h-5.97c-1.31,0-10.56-4.78-12.76-5.64-2.08-.81-4.1-1.97-6.36-1.22-2.05.68-8.13,6.23-8.46,8.33-.19,1.19.6,6.97,1.76,7.24.61,0,1.34-1.03,1.41-1.53.12-.84-.69-.95-.61-1.7l4.84-.65-.81-2.9c2.88,2.84,6.43,5.36,10.18,6.93.56.24,4.84,1.36,4.51,1.78-.82.21-1.65.39-2.47.61-.33.09-1.01-.15-.76.52.88,2.3,3.74,1.82,5.16,3.56l-3.55-.16c-.05,2.77,3.04,4.46,3.07,6.78-.65-.71-1.38-1.4-2.42-1.29l-.47,7.12-6.64.62,3.55-5.97c0-.27-.66-.22-.81-.17-.41.13-3.9,5.85-4.84,6.46h-6.62c1.36-2.03,2.88-3.93,4.13-6.04.59-.99,4.47-8.17,4.47-8.66,0-.35-.55-1.14-.85-1.3h-.98c-2.36,2.79-4.8,6.23-7.58,8.57-.36.3-.53.78-1.13.64l8.07-10.49c-1.02-2.39-3.79,1.72-5.01,2.74-.74.62-1.77,1.66-2.74,1.62.54-1.02,5.51-5.54,4.84-6.45l-1.78-.03c-4.38,5.1-10.39,9.12-13.97,14.78l-.39,3.65h-3.23c-.42-7.53,7.14-11.2,11.25-16.35-2.14-4.08-3.88-8.91-1.31-13.26.98-1.65,5.06-4.53,5.39-5.26.39-.85.04-2.01.24-2.99.58-2.82,3.99-9.43,6.22-11.21.65-.52,1.85-.79,2.24-1.31.43-.56.76-2.43,1.19-3.33,1.73-3.63,3.82-6.82,7.56-8.6-1.11-4.73-1.87-13.16,4.1-14.93,4.78-1.41,6.86,2.01,9.89,4.77.72.15,3.49-1.9,4.56-2.27,3.1-1.08,5.68-.34,8.47,1.14.38.2.06.75.56.63-.72-3.66-1.77-7.25-2.48-10.92-1.87-9.66-2.97-19.44-3.03-29.27-.02-2.93,1-8.16.2-10.84-.13-.43-3.12-5.37-3.4-5.15-2.78,9.15-5.34,19.25-9.92,27.68-5.66,10.4-15.42,16.37-24.14,23.99-9.45,8.27-14.62,17.94-22.14,27.58-4.84,6.21-10.95,11.63-17.32,16.26-3.4,2.48-7.03,4.72-10.74,6.71,1.06,6.79,4.66,12.96,8.11,18.78,7.49.52,15.78.42,21.57,5.87-2.64-.53-5.25-1.62-7.95-1.89-3.57-.36-7.74-.01-11.26-.37-.54-.05-1.38-.19-1.86-.4-1.09-.49-4.08-5.74-4.82-7.12-3.54-6.59-7.15-16.74-6.72-24.27.11-1.97.93-3.99.96-5.98-1.43,1.1-2.09,3.6-2.25,5.33-.79,8.26,2.24,17.88,5.96,25.03,1.03,1.98,2.47,3.76,3.4,5.8-1.31-.29-9.6-3.03-9.94-3.61-.29-.51-.02-2.11.41-2.52,1.45-.67,4.27-.63,3.23,1.62-.39.84-1.6.64-1.44,1.62,4.62.33,3.6-5.57-.65-4.84.01-1.41,1.9-2.49.48-3.87-.5,1-1.03,2.41-2.42,2.26l1.61-6.46-1.93,3.87v-2.58c-3.03,3.11.85,6.94-1.45,10.33-1.94-.79-.73-1.71-.78-3.06-.03-.69-.34-1.33-.35-1.94-.04-2.78-.03-4.95.96-7.58l-14.35,5.48-12.13-7.1.2-.67c10.15-7.56,16.48-17.89,19.99-29.98.68-2.34,1.72-5.72,2.05-8.28.11-.9,0-1.81.03-2.71l-1.13,4.52c-3.3,11.66-9.73,22.83-18.88,30.84-.97.85-4.49,3.84-5.58,3.66-1.92-.31-8.5-6.86-10.74-8.02-.39-.52,2.79-3.33,3.24-3.87,5.12-6.06,10.52-14.38,14-21.52.58-1.19,4-8.61,3.59-9.16-4.66,6.91-9.36,14.69-15.82,20.18-.25.22-.65.84-.97.32,3.4-11.52,13.18-20.02,16.69-31.42,1.61-5.23,2.65-10.71,2.35-16.21l-3.27,9.15c-6.29,11.27-12.71,21.34-17.7,32.99-2.2,5.15-3.91,10.56-6.96,15.31-.4-.59-1.71-1.41-1.95-1.94-.47-1.06,2.23-5.51,2.81-6.87,5.72-13.41,6.63-27.36,3.18-41.54,3.34,3.45,4.78,8.8,5.77,13.44l.68,6.26c.01-3,1.02-6.19.98-9.19-.03-2.15-.66-5.45-1.13-7.6-.35-1.58-2.06-5.79-2.01-6.89.08-1.64,3.64-5.56,4.69-7.21,2.75-4.3,5.64-9.78,5.54-14.96-.99-.16-.51.27-.65.79-1.79,6.61-6.69,13.61-11.62,18.26.14-4.09,2.73-7.9,4.25-11.73,1.27-3.2,2.29-6.52,3.49-9.75-.36-.25-.72.47-.91.71-2.01,2.6-5.26,7.99-7.1,10.98-1.63,2.64-2.74,5.57-4.42,8.17-5-6.77-8.01-15.95-4.59-24.12,5.46-3.28,11.1-5.74,15.41-10.58,1.26-1.41,3.01-3.72,3.92-5.44.25-.48.63-.92.59-1.5l-7.78,7.23c-1.08.85-9.74,6.82-10.3,6.33,2.18-4.99,6.69-7.99,10.33-11.78-1.59-.3-3.21,2.07-4.36,2.42-.45.14-.57-.03-.48-.48,2.71-4.38,7.95-8.27,7.91-13.72-3.7,3.74-7.05,7.8-10.65,11.63s-7.73,8.45-11.62,11.95c-3.02,2.72-6.84,5.56-10.18,7.9-.26.18-.63.87-.97.32l12.28-16.46c8.67-7.41,14.77-16.75,19.37-27.12l.96-3.24c-3.33,4.71-6.19,10.16-11.14,13.4-.22.07-.23-.28-.16-.48.63-1.55,3.87-5.28,5.01-7.26,8.65-15.07,6.2-25.76,8.6-41.77.59-3.92,1.9-7.65,2.53-11.51-1.64,2.07-2.36,4.67-4.1,6.69-.2.23.01.61-.74.41,1.1-4.03-2.26-8.07.32-11.77l-3.06-2.13-2.1-2.25c-2.08,9.43-2.35,19.6-6.19,28.52-4.76,11.06-15.56,17.14-20.57,27.86-4.24,9.06-5.2,17.6-2.93,27.37.41,1.75,2.14,5.34,1.28,6.82-4.84,4.74-11.38,8.53-15.85,13.53-1.96,2.2-3.59,4.78-4.98,7.29-.26.47-.67,1.41-1.14,1.6-1.22-4.69-2.5-9.38-3.45-14.14C1.88,126.57,35.52,59.56,95.26,28.66c87.64-45.33,194,3.42,218.46,97.98,1.05,4.05,1.56,9.09,2.9,12.92,1.07,3.06,3.79,7.05,5.28,10.22.51,1.08.79,2.27,1.34,3.34.54.09.35-.78.33-1.14-1.09-29.26-15.42-62.96-33.47-85.67C232.3-6.42,125.11-14.91,56.99,48.84s-66.52,168.72.97,231.51c71.08,66.13,182.61,52.92,237.57-26.25,7-10.08,12.98-21,17.21-32.51-4.09,5.28-8.65,10.16-14.39,13.69-.74,1.12.35,2.5-.13,4.07-.08.28-2.67,4.7-2.92,4.83-.63.31-.45-.52-.52-.76-.41-1.52-.63-3.12-1.24-4.58-.41-.33-2.87,1.02-3.1,1.48-.37.74.79,2.05,1.08,2.81.34.9,1.44,3.67,1.36,4.42-1.53,2.78-3.42,5.24-5.33,7.62-.73.14-.41-.31-.52-.75-.62-2.44-2.09-8.48-3.67-10.23-.47-.52-2.32.22-2.59.65-.45.75-.06,6.14-.16,7.59-.32,4.63-2.01,9.17-1.93,13.82l-3.08,3.45c-.77.14-.39-.35-.49-.79-1.01-4.5-.16-10.27.97-14.7-3.44,2.87-4.54,7.68-5.16,11.95-.84.09-.51-.01-.65-.47-1.1-3.54.74-7.03.97-10.5-4.08,5.64-3.72,13.56-1.03,19.81-.5.56-2.7,3.31-3.47,2.77-1.33-3.17-2.59-6.7-2.92-10.16ZM131.27,63.38c-2.47-.28-5.39.2-7.91,0,.83-1.14,2.78-1.99,4.11-2.51,14.22-5.59,29.83.65,35.61,14.78l.64-3.4.49-.79,3.74,3.69,9.66,5.35c-4.94-10.22-12.55-18.02-22.38-23.62-1.62-.92-3.64-1.61-5.17-2.57-.33-.21-1-.67-.06-.59,2.45,1.22,5.13,1.66,7.68,2.65,11.7,4.58,19.8,14.54,25.43,25.43l.33-2.75-.65-4.35c6.17,4.16,13.48,10.29,12.91,18.56-.27,3.89-2.15,3.7.81,7.27,8.86,10.71,21.81,15.46,29.44,27.7,1.29,2.08,2.77,4.48,3.33,6.84-2.54-2.6-4.62-5.75-7.21-8.28-7.48-7.32-17.67-10.85-26.38-16.4l-1.43-.18c-.99,1.4,4.72,4.42,4.03,5.17-3.3-1.82-6.29-4.05-8.92-6.75-.94.37-1.67,1.08-2.58,1.54-1.79.91-4,.48-1.57,2.94,4.68,4.75,12.68,10.06,18.46,13.51,8.93,5.32,20.43,9.31,25.78,18.77,1.71,3.02,3.49,6.89,3.7,10.34l-5.03-9.33c-7.36-10.25-20.34-12.57-30.58-18.5-3.41-1.97-6.6-4.55-9.58-6.89-1.56-1.22-3.09-2.62-4.85-3.55,1.62,1.66,3.06,4.27,4.63,5.86,10.12,10.29,24.89,14.79,34.43,25.79,4.78,5.51,9.74,15.44,10.96,22.62.06.32.26,1.19-.29,1.1-2.43-5.93-5.48-13.34-9.7-18.23-.43-.5-1.53-1.95-2.25-1.63,4.76,7.3,6.09,16.14,8.63,24.3,3.17,10.2,9.92,18.89,17.53,26.15l1.12,2.02c-6.16-4.71-11.88-9.91-16.25-16.36-7.53-11.12-8.81-24.51-16.39-35.91-1.78-2.68-8.04-10.38-10.81-11.47-.36-.14-1.85-.56-1.59.3l4.57,6.42c10.56,14.95,11.78,34.98,23.02,49.62,7.23,9.42,22.3,21.22,33.43,24.67,1.23.38,4.25,1.48,5.33,1.49,2.33.02,7.94-3.17,10.18-4.39.37-.2.79.02.63-.64-9.01-5.01-17.63-8.5-25.15-15.86-11.14-10.89-16.66-24.8-16.18-40.48.58-.73,1.12,1.56,1.18,1.83.92,3.98,2.83,7.17,5.48,10.55,1.5,1.91,2.12,5.33,3.1,7.72,5.51,13.42,12.93,20.48,25.68,26.95,1.38.7,10.88,5.29,11.51,5.26,1.06-.06,5.24-4.43,6.16-5.48,3.19-3.62,6.36-8.6,8.29-13.02.63-1.45,2.26-5.44,2.24-6.84s-1.06-2.06-1.61-3.26c-2.71-5.97-4.04-12.17-6.34-18.2-2.1-5.49-5.19-10.64-7.26-16.15,5.63,3.06,11.07,6.83,15.66,11.3.39-3.51-3.17-6.19-5.68-8.2-4.24-3.41-8.75-5.96-12.41-10.19-.52-.6-3.96-4.68-1.27-3.25,4.07,2.15,8.57,7.43,12.89,9.71l4.52,4.84c.1-1.23-.83-3.26-1.39-4.42-2.68-5.57-6.8-7.62-11.05-11.55-3.17-2.93-6.75-6.6-9.3-10.07-4.04-5.49-3.56-6.15-10.06-9.64-7.26-3.9-15.52-6.62-23.58-8.22-.33.32,3.29,5.36,3.72,6.13,3.38,5.98,7.82,17.12,9.12,23.81.06.33.33,1.13-.24,1.05-5.44-11.44-14.78-20.55-20.18-31.97-.75-.74-9.51-1.51-11.15-1.28-.16-.86.18-.56.65-.79,2.43-1.19,5.11-2.15,7.75-2.76l-6.46-22.27c.49-.51,1.66,1.99,1.79,2.24,3.18,6.26,5.81,12.77,9.84,18.59l13.23-.83c-2.2-2.7-3.37-6-5-9.04-5.48-10.2-11.09-20.34-16.63-30.51l.15-.48c5.16,6.59,10.09,13.5,14.63,20.56,2.3,3.57,4.05,7.52,6.84,10.76-1.21-8.93-3.24-18.43-6.62-26.79-1.52-3.77-3.63-7.3-5.32-10.98,8.29,9.54,13.27,22.26,15.98,34.54.91,4.13,1.78,8.33,1.77,12.6,3.71.21,7.45.8,10.98,1.93-3.78-27.06-15.47-52.44-36.98-69.73-17.84-14.34-42.61-21.88-65.45-18-.34.06-1.28.08-1.22.55,8.82.2,16.87,1.68,24.9,5.3.73.33,1.01,1.19,2.46,1.08l2.02,1.69c-14.77-5.16-33.52-6.82-48.05-.08-.46.21-.88-.19-.7.73,1.4-.39,3.02-.98,4.44-1.21,15.29-2.43,33.5,2.67,46.03,11.28,7.08,4.87,13.32,11.36,18.3,18.34-.61.14-.77-.34-1.13-.64-1.75-1.47-3.54-3.74-5.32-5.33-10.09-8.98-22.76-15.63-36.11-18.13-14.62-2.74-32.4-.91-43.97,9.1l9.94-3.3c15.22-4.45,31.9-1.11,45.37,6.75,1.21.71,6.35,3.87,7.01,4.61.18.2.42.32.32.65l-.65.32c13.13,9.32,20.59,22.45,25.92,37.37,2.28,6.38,3.5,14.05,5.8,20.03,1.14,2.97,3.47,6,4.82,9.06,2.45,5.53,3.76,11.28,4,17.34.02.53.32.85-.35,1.28-1.23-5.43-2.87-10.9-5.48-15.83-3.53-6.65-8.74-12.26-12.7-18.62-5.96-9.56-8.74-20.5-14.33-30.23-.71-1.23-2.78-3.6-3.16-4.59-.21-.56.44-.65.64-.48.05.05.12.67.46.98,8.36,7.53,11.77,17.08,16.81,26.8,1.69,3.27,3.67,6.39,5.34,9.67.57.08.31-.72.24-1.05-.43-1.99-1.77-5.79-2.5-7.84-8.89-25.07-24.18-45.68-51.28-52.04-13.83-3.24-32-1.9-43.31,7.52-.32.27-1.36.93-.84,1.42,2.53-1.66,6.16-3.17,9.14-3.78,1.68-.34,4.36-.74,6.03-.75.64,0,.52.05.49.66-7.13,1.33-15.12,5.08-19.37,11.14l4.35-2.11c5-2.11,11.11-2.92,16.47-1.92.53.1.56-.21.48.63-4.33-.06-8.99,1.77-12.7,3.93-1.47.85-2.94,2.35-4.61,3.14-2.46,1.15-5.18.91-7.39,2.62l.42-2.17-.25-.74-.22,1c-1.32.37-1.7,2.09-2.72,2.69-.92.55-3.57,1.03-4.9,1.56-7.91,3.12-12.86,6.76-16.06,14.94-.07.23,1.19.45,1.45.48,2.13.22,7.32-.17,9.69-.33,1.93-.13,4.02-.65,5.98-.64.27-.23-2.04-3.72-2.32-4.3-1.01-2.12-1.78-4.45-2.52-6.68,1.2-.13,1.9,1.05,2.8,1.56,4.64,2.6,9.54,2.41,13.99,5.22.5-.65-3.67-8.16-4.26-9.46-.12-.26-.55-.68-.1-.87,6.1,2.84,12.91,2.69,17.59,8.24,2.57,3.05,2.09,5.76,3.63,8.64.28.52,1.36,1.87,1.86,1.37l-4.04-10.17c.34-.52.57-.1.99-.02,4.13.79,11.27,4.16,13.33,7.99,1.32,2.44.93,6.6,4.57,6.56-.74-1.06-1.31-2.19-1.94-3.31-1.65-2.94-2.67-6.36-4.04-9.59-.59-1.39-1.35-2.74-2.09-4.05l5.49,1.94c-5.02-4.66-12.82-11-19.86-11.79ZM123.84,33.35c-1.6-.19-3.8,0-5.49,0-.21,0-1.67.89-1.77,0,5.67-2.35,11.44-3.15,17.52-1.99,4.72-4.61,10.9-7.61,17.35-8.99l-2.42-.64c-17.63-.04-35.45,7.38-47.62,20.01,4.86-1.17,10.25-2.63,15.26-1.53.46.1,1.73.37,1.86.88-6.1.32-12.8,2.21-18.4,4.69-9.17,4.06-17.24,11.94-21.53,20.92-.26.54-1.14,3.13-1.03,3.54.07.25,1.19,1.7,1.52,2.38.44.91.89,2.01,1.02,3.02.97-1.05,1.37-2.59,2.12-3.85,5.48-9.19,18.6-19.11,28.87-11,.31-6.7-4.37-8.19-10.18-7.76-1.62.12-3.11.75-4.67.82,3.92-2.61,8.92-4.24,13.69-3.68,1.75.21,3.32,1.21,5.05,1.44,3.33-6.45,7.67-12.18,13.55-16.49.01-.48-4.03-1.7-4.68-1.78ZM107.86,64.67c-9.73-3.68-18.25,3.27-21.95,11.78.36.25.72-.47.91-.7,2.44-3.12,3.63-5.24,7.27-7.26,4.61-2.57,8.26-2.54,13.3-3.18.44-.06.98-.18.48-.64ZM165.03,87.25l1.29-.13c.98-.66-1.53-4.02-1.96-5.18-1.55-4.14-.2-4.92-3.55-8.72-3.73-4.23-9.96-8.11-15.49-9.21,1.99,1.58,4.39,2.53,6.43,4.06,4.32,3.22,7.25,8.05,9.98,12.62,1.19,1.99,2.61,4.39,3.3,6.54ZM76.54,75.32v5c0,.91,1.32,3.79,2.26,4.36.29-2.02.51-4.24.32-6.29-.55-5.9-4.92-8.27-7.58-13.08-.75,7.19-2.11,16.61,5.49,20.66.92-1.72-4.15-4.47-3.39-5.49l.96.65c-.57-2.96-2.05-5.9-1.93-9.04l1.29,3.87.96-3.23.33,5.49,1.29-2.91ZM83.51,75.2c1-1.92,2.14-3.73,3.03-5.69-1.87,1.63-5.62,6.91-5.78,9.24-.03.48-.26.9.45.77,1.41-.9,1.24-2.79,1.81-3.94.11-.22.43-.27.49-.37ZM135.72,85.89c-.31-.47-.88-3.9-1.43-5.19-2.9-6.79-8.68-8.79-15.45-10.21,2.19,3.79,3.66,8.93,7.1,11.79,3.08,2.55,6.25,2.82,9.69,4.19.58.23,1.21,1.13,1.61.65-.22-.55-1.35-.95-1.52-1.22ZM149.19,89.21c-.26-.89-.14-1.95-.59-3.13-1.92-5.13-6.52-6.68-11.2-8.49l1.4,4.09c1.64,3.63,3.22,6.15,7,7.85.45.49-.35.35-.64.32-2.24-.24-4.8-1.8-6.5-1.94-.61-.05-.27.65-.92.69-1.37.1-10.18-1.96-11.7-2.56-3.53-1.39-4.53-5.14-7.42-7.11-3.88-2.66-8.6-1.95-12.37-4.57-.44.61,2.47,5.28,3.09,6.11,4.24,5.69,7.75,4.71,13.83,5.54,1.91.26,4.09,1.21,6,1.59.3.39-3.63,1.62-4.09,1.87-2.07,1.1-5.28,4.31-6.72,6.19-.25.32-.63.41-.48.97,5.25-.2,9.04,1.49,13.86-1.48,2.33-1.43,4.57-4.57,7.32-4.95,3.04-.42,9.1,1.3,12.15,2.33.87.29,2.49.91,3.16,1.52-2.47.52-4.98-.26-7.58,0-4.64.47-7.82,5.26-11.14,8.06,2.65-.69,5.16.28,7.91,0,3.54-.35,6.17-2.48,8.23-4.99.17-.21,1.05-1.4.98-1.46-2.68-.23-3.6,2.15-5.01,3.87l.48-2.26c-1.8-.16-2.35,2-3.71,2.9-.82-1.22,1.4-1.18,1.29-2.26l-5.32,2.26,3.55-2.26-.64-.96,3.55-.33v-.97s-1.29-.32-1.29-.32c3.34.54,6.69-.81,9.83-.98,1.56-.08,3.25.2,4.81.38,1,.11,7.39,1.02,7.74,1.23.34.19.24,1.04.51,1.49,2.2,3.68,7.45,5.96,10.26,1.74l4.29.34c.18-.86-.22-.56-.64-.8-.61-.36-2.79-1.05-2.87-1.18-.28-.44.22-2.44-1.01-3.03.02-.3.54-.18.78-.14,1.04.18,8.7,5.07,9.56,5.94,1.84,1.84,2.9,7.02,5.46,7.77,1.06.31,2.25.36,2.92-.66.12-.87-1.09-.19-1.86-.36-3.17-.7-3.06-4.24-4.41-5.95-1.54-1.95-6.61-4.75-8.6-6.65-1.18-4.38-2.51-10.11-6.33-12.96-3.51-2.62-8.46-3.65-11.25-7.16-.65,8.36,6.23,16.23,14.69,16.46l-2.62-2.06-3.19-1.17,1.61-.64c-1.87-.84-2.92-2.21-5.16-2.27l1.93-.31-4.19-2.11,1.29-.32-2.26-3.39,5,4.52c.46-.46-.82-2.02.16-2.26.43.88.92,2.12,1.48,2.88.79,1.07,1.87,1.28,2.41,2.28l.17-.65-.82-2.25c1.61.98,2.02,3.07,2.97,4.62,1.18,1.93,3.06,3.57,3.16,6.03-3.02-.45-5.62-2.22-8.72-2.58l1.61,1.29c-2.13-.39-3.78,1.46-5.65,1.62-1.68.14-3.35-.5-5-.65l.97,1.29c-.47.02-.95.03-1.42-.03-2.29-.29-10.51-2.37-12.47-3.35-.78-.39-1.37-1.29-1.61-2.1l-.16,1.29c-1.42-1.56-3.34-2.81-5.33-3.55l1.29-.8-2.9-1.46.64-.8-2.58-3.39c.26-.25,2.1,1.32,2.43,1.6,2.52,2.19,4.13,4.96,6.61,7.11ZM86.76,85.22c2.52-2.22,5.1-7.22,5.6-10.54-3.65,4.17-9.38,3-12.12,8.06-.45.82-.62,1.79-1.12,2.59.61.61,2.13-2.84,2.26-3.22l.48,2.25c1-.33,1.21-2.65,1.46-2.9,1.12-1.12-.12,1.75.8,1.29l5.01-3.87c.47.51-2.45,2.77-2.9,3.07l1.46.16-4.36,2.42,1.29.8c-1.84.36-5.15.54-5.81,2.75-.23.76.32.38.66.34,2.27-.24,5.58-1.69,7.3-3.2ZM163.39,92.43c.41-5.76-2.22-10.64-7.53-12.97l-7-3.49c2.42,4.92,3.39,11.29,8.29,14.47.88.57,4.93,2.69,5.79,2.93.6.16.62-.42.45-.61-.05-.05-.57-.06-.8-.31-1.63-1.75-3.4-3.65-5.97-3.89-.43-1.44,2.31.49,1.93-.8s-3.15-3.31-4.51-3.73v-.64s1.29-.16,1.29-.16c-.78-.96-2.49-1.98-2.42-3.39l5.32,5.01,5.17,7.58ZM185.03,77.91v8.56c0,2.29,2.48,5.49,3.43,7.55l3.03,3.26c.37-2.99-.45-5.49-2.6-7.56-.39-.37-1.36-.53-1.59-1-.73-1.48,2.54,1.42,2.58.65l-3.22-3.88.63-.48c-.12.51,1.23,1.98,1.62,1.61-.66-1.5-1.77-3.17-2.19-4.75-.08-.31-.32-1.14.25-1.05l3.24,6.45.64-1.29.65,4.84.64-.96c.43,1.52.46,3.38.29,4.96-.13,1.17-.95,2.79-.95,3.59,0,.7.85,2.86,1.63,2.26-1.45-2.41.52-5.47.66-8.38.31-6.39-4.61-10.3-8.73-14.38ZM124,83.07l-1.61-2.26c.11.84.9,1.84,1.61,2.26ZM76.86,90.5c.83-2.74-.83-2.84-2.58-4.35-.86-.74-1.56-1.67-2.42-2.42-.43-.01-1.09,2.73-.65,3.23l5.66,3.55ZM107.86,85.98c1.12-.06,2.17-.62,2.9-1.46-1.13-1.39-2.37-.49-3.69-.47-4.28.07-7.65.54-11.62.8-1.58.1-4.61-.58-6.1-.12-.31.1-.61.39-.53.75.21.21.39.49.62.67.9.72,2.06.23,2.6,1.11-2.74.02-4.64-1.18-7.1.65.4.63,1.7.63,2.35,1.03.3.19.66.27.55.73-.07.29-3.88,3.96-4.28,4.13-1.01.44-1.49-.01-2.49-.08-.54,1.72,2.12,2.12,3.2,1.78,1.51-.48,4.64-4.98,5.67-5.02.25.7.87.82,1.28,1.31.31.38,2.25,4.08,2.76,3.54-.72-2.29-.64-5.2-2.9-6.62,2.05-.76,2.1-2.89,4.03-3.72l-1.14,5.32c-.19,5.4,2.55,5.77,7.27,5.34s5.5-4.1,4.13-8.32c-.37-1.15-1.03-1.9-1.38-2.98.36.75,1.28.88,1.49,1.07.33.29.46.82.91,1.2.58.5,1.74.58,1.81,1.45l-2.28,6.61c.61.13.78-.3,1.1-.67.57-.65,2.71-4.48,2.98-4.52,1.62-.26,5.11,5.09,7.8,4.34.9-.25,1.84-1.03,1.68-2.06-.81-.03-1.5.51-2.34.27-.32-.09-5.07-3.66-5.08-3.98l1.1-.83,2.44-.62c-1.08-.11-1.99-.89-3.06-.99-1.44-.13-2.28.51-3.55.66-.33.04-1.22.22-1.13-.32ZM77.83,95.99c-.8-5.01-6.03-7.85-10.65-8.39l3.74,6.1c1.51,1.57,3.52,4.13,5.94,3.42-1.36-1.68-2.55-3.18-4.52-4.2l.97-.32c-.68-.81-1.61-1.2-2.5-1.7-.72-.41-.63-.49.09-.41,2.81.31,4.95,3.8,6.93,5.5ZM123.36,88.24h-7.27s-.85.39-.81.48c.79.79,1.17,1.55,2.43,1.49.62-.03.33-.7.94-.72,1.33-.05,4.48,1.46,4.7-1.26ZM170.82,91.78c.68-1.01-2.96-2.9-3.55-3.55-.86,2.73.74,4.59,3.55,3.55ZM183.1,88.24c-.57,3.82,1.9,6.62,5.01,8.39l-5.01-8.39ZM85.26,90.18c-.46-.27-6.67.26-5.49,1.29,1.28-.09,2.23-.08,3.33.6l2.16-1.88ZM181.15,137.15c.17-1.46-.13-3.18,0-4.68,1.51,1.92,2.56,4.13,4.19,5.98s3.81,3.58,5.78,4.87c.28.18.72.79,1,.29-1.91-1.42-3.35-3.33-4.84-5.17-5.53-6.83-5.84-13.6-9.95-21.04-1.23-2.22-3.28-6.32-6.19-5.6,1.17-3.03-2.49-4.86-3.74-7.42-6.21,4.5-10.69,1.83-16.93.16-4.73-1.27-6.82-.66-11.47-.8-2.05-.06-4.53-.46-6.6-.66-.45-.49,2.2-2.07,2.59-2.42,2.27-2.06,4.13-4.42,6.67-6.25.33-.24,3.29-1.39,2.69-1.99-1.76-.12-4.96-1.06-6.53-.31-.41.19-.59.92-1.04,1.29-1.1.91-2.8,2.51-3.94,3.16-5.74,3.25-12.03,1.73-18.19,1.02-.21-.73.87-1.05.94-1.49.15-.87-1.93-1.45-2.54-1.91-.71-.54-1.66-1.97-2.44-2.09l-3.6,4.48c-4.41,1.45-9.49.87-14.09.63-1.3-.38-2.15-4.07-3.61-3.82-.55,1.53-3.73,3.08-3.41,4.66.04.21.63.24.66.36.37,1.32-1.4.5-2.03,1.85-1.08,4.86-2.01,10.11-4.1,14.62.03.46,2.48.81,3.12,1.07,7.03,2.86,11.62,10.17,10.27,17.82-.8,4.51-5.95,13.29-8.61,17.21-4.13,6.08-11.36,11.16-1.65,16.95,3.15,1.88,7.42,3.31,11.08,3.62-.65,2.13.7,3.18,1.3,4.99.55,1.66,1.58,5.87-.98,5.98,0-2.38-.24-5.59-2.26-7.1-.37,1.46-.59,3.68-1.94,4.52.67-5.16-1.32-7.76-6.13-9.21.68,2.34.84,5,1.36,7.35.38,1.68,1.42,3.81,1.71,5.39.39,2.08-.43,4.3.23,6.87.52,1.98,2.08,3.31,2.17,5.41,1.68-1.34-.48-2.88-1.04-4.29-.71-1.79-1.34-6.64,1.49-6.36.76.08,1.38.78,2.05.91,1.82.36,3.47-1.65,5.16-1.81.77-.07,2.78.75,3.63,1.07,5.08,1.89,11.1,6.01,16.4,6.53,1.82.18,3.21-1.04,3.3,2.34-2.86-.04-5.65.58-8.52.29-2.01-.21-4.08-1.1-6.16-1.26-3.59-.29-6.04.41-9.41.94-1.65.26-3.81-.56-4.72,1.42-1.98,4.32.61,6.44,4.75,6.71,4.93.31,9.13-1.7,13.73-2.91l-6.14,4.35c3.06.7,4.87,2.14,6.14,5-3.22-.63-6.79-1.1-10.01-.16-1.16.34-2.07,1.22-3.23,1.45-.27-2.38-1.6-5.88-4.2-6.46.2,1.48,1.06,2.72,1.46,4.18,1.28,4.65.89,8.3,1.52,12.69,1.28,8.88,10.7,10.69,18.16,9.92,9.36-.96,21.35-5.13,30.19-8.56,12.42-4.81,34.41-14.63,41.07-26.41,4.47-7.9,6.9-16.94,8.99-25.72,4.16,5.73,12.2,3.15,16.31-1.28.57-.61,1.44-1.87,1.42-2.72-.03-1.14-2.91-8.84-3.7-9.24l-5.64,4.04c-1.08.14-3.54.56-4.18-.36-1.71-2.44,1.9-4.45,2.95-6.36.88-1.62,1.31-4.06.15-5.62-.57-.77-3.58-2.3-4.05-.86-.16,1.15.06,2.32-.08,3.47-.47,3.74-3.86,7.19-4.5,10.34-.08.37-.13.61-.47.83-.68-1.15-2.49-3.17-3.87-3.26-2.57-.15-5.28,3.36-7.11,4.86-4.72,3.87-14.09,11.57-20.1,12.21-.92.1-1.38.11-1.29-.96,1.01-13.22,18.84-22.68,20.6-37.55ZM83.28,97.32l-3.51-1.98.34,3.21,2.68-.03.39-.25.1-.95ZM167.27,98.89c-1.68-1.54-5.39-2.83-7.62-2.87-4.27-.06-7.93,4.31-11.1,6.74,4.35.08,7.66,2.65,12.1,2.26,2.8-.25,6.77-1.93,7.59-4.84-3.57.41-6.61.55-9.53,2.9-.47-1.09,1.56-1.34,1.78-2.25-1.94-.19-4.92,1.96-6.46.32l4.19-.98-1.61-1.61c2.07.53,3.92,1.28,6.13.96-.34-.67-1.78-.37-1.61-1.61,2.05.92,3.87,1.15,6.13.96ZM77.83,99.22c-3.36.08-3.26,3.24-2.58,5.81,1.48-1.41,1.83-3.93,2.58-5.81ZM183.74,106.64c.11-.28.62-1.18-.17-.97l-3.23,2.59.97-1.94-4.68,1.94c1.03-1.41,2.87-2.2,4.52-2.58l-1.61-.96,4.52-.33-1.61-1.61c2.24.96,4.19.66,6.45,0,.08-.47-.56-.43-.9-.54-7.11-2.41-11.94,1.69-14.6,7.97,4.58-.85,9.97.89,13.74-2.56l3.05-3.89c-1.74-.05-2.63,1.79-4.05,2.57l-.95-.63c-.37.69-.99.7-1.46.97-.2.53-.26,1.1-.97,1.29-.09-1.26.54-1.05.97-1.29ZM197.62,106.32c.1-1.09-.05-1.8-.8-2.58-.3-.32-4.74-3.38-4.68-1.78.02.39,5.06,3.27,5.48,4.36ZM185.84,105.03v.32c.21-.11.21-.22,0-.32ZM199.24,108.24c1.77.38,2.99,1.99,4.83,2.11l-4.07-3.36c-.56-.31-.83,1.15-.77,1.25ZM229.91,244.82c.25.29,3.46-2.67,3.97-2.97,4.68-2.71,10.42.59,15.39,1.53,50.6,9.6,88.09-41.49,71.61-88.39-11.38-32.38-47.11-52.83-81.07-47.01-.45.08-1.75.09-1.83.59,27.13,2.29,54.64,18.3,65.05,44.25,16.73,41.67-15.9,84.04-60.61,75.78-3.98-.73-7.78-2.36-11.66-3.44-2.66,4.39-6,8.48-9.57,12.07l1.83,1.42,8.67-10.3c.68,1.61.18,3.31.96,4.86.24.47,0,.78.81.63.46-2.17-1.17-3.67-.96-5.81,17.51,9.06,37.13,9.32,54.22-.83,22.34-13.27,32.37-39.91,26.34-65.03-5.44-22.68-22.56-39.07-43.67-47.71l-15.91-5.24,7.53.32c2.66.91,6.73,1.43,9.97,2.35,23.64,6.69,42.32,24.53,48.85,48.34,12.6,45.92-25.11,90.39-72.87,80.62-4.86-1-8.59-3.23-13.62-.83-1.89.9-4.01,2.44-3.43,4.8ZM89.45,126.01c.47-.4-1.71-2.11-2.03-2.32-.85-.55-6.91-3.23-7.33-2.84l2.91,7.75c1.73-1.64,3.98-2.73,6.45-2.58ZM92.03,130.53c-1.41-3.19-4.08-3.51-6.78-1.61.25.92,1.07.26,1.72.34,1.8.22,3.39.59,5.06,1.27ZM92.04,133.12c-4.8-1.28-1.26,2.38-.65,1.93l.65-1.93ZM88.24,135.94c-.45-.47-.39-1.55-.4-2.18l-.99.54c0,2.05,1.15,4.45,3.53,3.94l.68-2.86c-.34-.38-1.78,1.65-2.83.57ZM89.13,139.58l-2.58-.65,2.16,1.24.43-.59ZM88.81,140.87h-1.29s0,2.26,0,2.26c.52-.06,1.48-2.09,1.29-2.26ZM218.61,236.43c1.65-1.08,2.32-3.13,3.05-4.85,3.25-7.63,4.33-12.05,2.98-20.39-.53-3.28-1.45-6.48-2.49-9.62-.56-.08-.3.73-.32,1.12-.23,6.24.32,12.51-.32,18.73-.54,5.19-2.45,9.9-2.9,15.02ZM239.59,214.15l-.64.16c.73,1.01.03,2.14-.02,3.22-.1,2.46.12,4.94,0,7.4l3.57.52c-.1-3.94-1.97-7.54-2.91-11.3ZM256.71,227.07c-.28-1.73-.51-4.59-1.6-5.98-1.4-1.77-5.99-3.58-7.75-5.32-.19.24,2.13,4.69,2.41,5.5.65,1.83,1.03,3.89,1.49,5.77,1.92.02,3.53-.61,5.46.03ZM225.07,255.48c.6.58,4.15-3.14,4.38-3.86,1.1-3.43-5-9.1-7.63-10.81-1.39-.9-4.88-2.67-6.43-1.96-.46.21-2.9,3.84-3.25,4.51-.16.31-.54.26.01.65,3.33,1.22,6.34,3.21,8.88,5.65l-2.1-2.9c1.36.08,1.96,1.64,3.23.49,1.69-1.52.84-3-.65-4.21-.05-.24.31-.21.48-.15,1.8.55,6.72,5.43,6.63,7.23-.1,2.07-3.31,3.33-3.55,5.36ZM191.48,245.46c.05-.35.06-.65-.15-.96-.11-.17-2.97-2.58-3.16-2.65-5.54-2.25-6.5,5.47-5.08,9.12.55-.03.41-.84.82-1.27,1.67-1.76,5.33-3.2,7.56-4.23ZM240.89,244.18c-2.16-.4-4.19-.78-6.11.5-.27.18-2.36,1.94-2.45,2.08-.39.62.28,2.82.14,4.01-.44,3.52-3.78,5.44-5.78,7.78-.45.53-2.78,3.85-2.87,4.27-.26,1.27,5.17,5.89,5.12,7.83.33,0,.45-.31.57-.55,2.85-5.56,5.99-12.23,8.52-17.96.44-1,3.19-7.59,2.85-7.96ZM215.36,247.76c-1.71-.68-3.21-1.88-5.14-1.96l3.76,4.17c.71.12,1.71-1.76,1.39-2.21ZM214.44,250.35l1.79,2.86c.7.15,2.01-2.11,2.31-2.73l-2.03-1.45-2.07,1.32ZM88.67,258.91c.42-.99,2.7-7.53,2.39-7.95-1.13,1.32-1.58,3.46-2.41,5.17-2.1,4.37-5.17,9.37-7.98,13.33-1.29,1.82-2.99,3.45-3.98,5.38,3.3-3.35,6.69-6.52,9.14-10.55.91-1.49,2.22-3.95,2.83-5.39ZM217.32,255.16c.7-.47,2.69-2.23,2.53-3.02l-.76-.85c-.58,1.29-1.64,2.4-1.77,3.87ZM219.9,254.83c.59-.34,1.37-.94,1.29-1.61-.59.34-1.37.94-1.29,1.61ZM221.2,260.32c1.56-.43,3.17-2.41,1.77-3.87-.37,1.54-2.03,2.18-1.77,3.87ZM108.34,292.93v.32c.21-.11.21-.22,0-.32ZM109.79,295.19v-.64h-.32v.64h.32ZM169.07,313.14c1.47-1.75,2.77-3.9,3.69-6l-4.84,6.62c-.21,1.07,1.1-.57,1.15-.63Z"/>
  <path class="cls-1" d="M263.82,267.59c.33,3.46,1.59,6.99,2.92,10.16.77.54,2.97-2.21,3.47-2.77-2.69-6.25-3.05-14.18,1.03-19.81-.23,3.47-2.07,6.96-.97,10.5.14.46-.19.57.65.47.63-4.27,1.73-9.08,5.16-11.95-1.13,4.43-1.98,10.2-.97,14.7.1.45-.28.94.49.79l3.08-3.45c-.09-4.66,1.61-9.2,1.93-13.82.1-1.45-.29-6.84.16-7.59.26-.43,2.12-1.17,2.59-.65,1.58,1.75,3.05,7.79,3.67,10.23.11.44-.21.9.52.75,1.92-2.38,3.8-4.84,5.33-7.62.07-.75-1.02-3.52-1.36-4.42-.29-.76-1.45-2.08-1.08-2.81.23-.46,2.69-1.8,3.1-1.48.6,1.46.83,3.06,1.24,4.58.07.24-.11,1.07.52.76.25-.13,2.84-4.55,2.92-4.83.48-1.58-.61-2.95.13-4.07,5.74-3.54,10.3-8.42,14.39-13.69-4.23,11.52-10.21,22.43-17.21,32.51-54.95,79.17-166.49,92.38-237.57,26.25C-9.53,217.56-10.51,112.03,56.99,48.84s175.31-55.26,233.1,17.48c18.04,22.71,32.38,56.42,33.47,85.67.01.36.2,1.23-.33,1.14-.55-1.07-.84-2.26-1.34-3.34-1.48-3.18-4.2-7.16-5.28-10.22-1.34-3.83-1.85-8.87-2.9-12.92C289.26,32.08,182.9-16.67,95.26,28.66,35.52,59.56,1.88,126.57,15.29,193.23c.96,4.76,2.24,9.45,3.45,14.14.48-.18.89-1.13,1.14-1.6,1.39-2.51,3.02-5.09,4.98-7.29,4.46-5,11.01-8.79,15.85-13.53.85-1.48-.88-5.08-1.28-6.82-2.27-9.77-1.31-18.31,2.93-27.37,5.01-10.72,15.82-16.8,20.57-27.86,3.84-8.93,4.1-19.09,6.19-28.52l2.1,2.25,3.06,2.13c-2.58,3.7.78,7.74-.32,11.77.75.2.54-.18.74-.41,1.74-2.02,2.46-4.62,4.1-6.69-.64,3.86-1.95,7.59-2.53,11.51-2.39,16.01.06,26.7-8.6,41.77-1.14,1.98-4.37,5.71-5.01,7.26-.08.19-.06.54.16.48,4.95-3.24,7.81-8.69,11.14-13.4l-.96,3.24c-4.6,10.37-10.71,19.71-19.37,27.12l-12.28,16.46c.34.54.71-.14.97-.32,3.34-2.34,7.16-5.19,10.18-7.9,3.89-3.5,7.99-8.09,11.62-11.95s6.95-7.89,10.65-11.63c.04,5.46-5.2,9.34-7.91,13.72-.1.44.02.61.48.48,1.15-.34,2.78-2.72,4.36-2.42-3.64,3.79-8.15,6.8-10.33,11.78.55.5,9.22-5.47,10.3-6.33l7.78-7.23c.03.58-.34,1.03-.59,1.5-.91,1.72-2.67,4.03-3.92,5.44-4.31,4.84-9.95,7.3-15.41,10.58-3.42,8.17-.42,17.35,4.59,24.12,1.67-2.61,2.79-5.54,4.42-8.17,1.85-2.99,5.09-8.38,7.1-10.98.18-.23.55-.96.91-.71-1.2,3.23-2.22,6.55-3.49,9.75-1.52,3.83-4.11,7.64-4.25,11.73,4.93-4.64,9.82-11.65,11.62-18.26.14-.52-.34-.95.65-.79.1,5.18-2.79,10.66-5.54,14.96-1.05,1.65-4.62,5.57-4.69,7.21-.05,1.1,1.66,5.3,2.01,6.89.47,2.16,1.11,5.46,1.13,7.6.04,2.99-.97,6.18-.98,9.19l-.68-6.26c-.99-4.64-2.43-9.98-5.77-13.44,3.45,14.19,2.55,28.13-3.18,41.54-.58,1.36-3.28,5.82-2.81,6.87.24.53,1.55,1.36,1.95,1.94,3.05-4.76,4.76-10.16,6.96-15.31,4.99-11.66,11.41-21.72,17.7-32.99l3.27-9.15c.29,5.5-.74,10.97-2.35,16.21-3.51,11.4-13.29,19.9-16.69,31.42.32.52.71-.11.97-.32,6.45-5.5,11.15-13.27,15.82-20.18.4.55-3.01,7.96-3.59,9.16-3.47,7.14-8.87,15.46-14,21.52-.46.54-3.64,3.36-3.24,3.87,2.24,1.16,8.82,7.71,10.74,8.02,1.09.18,4.62-2.81,5.58-3.66,9.16-8.01,15.58-19.18,18.88-30.84l1.13-4.52c-.03.9.08,1.81-.03,2.71-.33,2.56-1.37,5.94-2.05,8.28-3.51,12.09-9.84,22.43-19.99,29.98l-.2.67,12.13,7.1,14.35-5.48c-.99,2.63-1.01,4.81-.96,7.58,0,.61.32,1.25.35,1.94.05,1.35-1.16,2.28.78,3.06,2.31-3.39-1.58-7.22,1.45-10.33v2.58s1.94-3.87,1.94-3.87l-1.61,6.46c1.39.16,1.92-1.26,2.42-2.26,1.42,1.38-.47,2.46-.48,3.87,4.24-.73,5.27,5.17.65,4.84-.15-.98,1.06-.77,1.44-1.62,1.04-2.24-1.78-2.29-3.23-1.62-.42.42-.7,2.01-.41,2.52.34.59,8.63,3.33,9.94,3.61-.93-2.04-2.36-3.82-3.4-5.8-3.73-7.14-6.76-16.77-5.96-25.03.17-1.73.82-4.23,2.25-5.33-.03,1.98-.85,4-.96,5.98-.43,7.52,3.18,17.68,6.72,24.27.74,1.38,3.74,6.63,4.82,7.12.48.22,1.31.35,1.86.4,3.52.36,7.68,0,11.26.37,2.7.27,5.31,1.36,7.95,1.89-5.79-5.45-14.08-5.36-21.57-5.87-3.45-5.82-7.05-11.99-8.11-18.78,3.7-1.99,7.33-4.23,10.74-6.71,6.37-4.64,12.47-10.05,17.32-16.26,7.52-9.64,12.69-19.31,22.14-27.58,8.71-7.62,18.48-13.59,24.14-23.99,4.59-8.43,7.14-18.52,9.92-27.68.28-.22,3.27,4.72,3.4,5.15.8,2.68-.21,7.92-.2,10.84.06,9.83,1.16,19.61,3.03,29.27.71,3.67,1.75,7.26,2.48,10.92-.5.12-.18-.43-.56-.63-2.79-1.48-5.37-2.22-8.47-1.14-1.06.37-3.83,2.42-4.56,2.27-3.04-2.76-5.11-6.18-9.89-4.77-5.98,1.76-5.22,10.2-4.1,14.93-3.75,1.78-5.83,4.97-7.56,8.6-.43.9-.76,2.76-1.19,3.33-.4.52-1.59.79-2.24,1.31-2.23,1.78-5.64,8.39-6.22,11.21-.2.97.14,2.13-.24,2.99-.33.74-4.41,3.61-5.39,5.26-2.58,4.35-.83,9.18,1.31,13.26-4.11,5.15-11.67,8.82-11.25,16.35h3.23s.39-3.65.39-3.65c3.58-5.67,9.58-9.68,13.97-14.78l1.78.03c.66.91-4.3,5.43-4.84,6.45.96.04,1.99-1,2.74-1.62,1.22-1.02,3.99-5.14,5.01-2.74l-8.07,10.49c.61.14.77-.34,1.13-.64,2.79-2.34,5.23-5.78,7.58-8.57h.98c.3.16.85.95.85,1.3,0,.49-3.87,7.66-4.47,8.66-1.26,2.1-2.78,4.01-4.13,6.04h6.62c.94-.61,4.43-6.33,4.84-6.46.15-.05.81-.1.81.17l-3.55,5.97,6.64-.62.47-7.12c1.04-.11,1.78.58,2.42,1.29-.02-2.32-3.12-4-3.07-6.78l3.55.16c-1.42-1.73-4.28-1.26-5.16-3.56-.26-.67.43-.43.76-.52.82-.22,1.65-.4,2.47-.61.32-.41-3.95-1.54-4.51-1.78-3.75-1.58-7.3-4.1-10.18-6.93l.81,2.9-4.84.65c-.08.75.73.86.61,1.7-.07.49-.8,1.53-1.41,1.53-1.16-.28-1.94-6.05-1.76-7.24.33-2.1,6.41-7.65,8.46-8.33,2.26-.75,4.28.4,6.36,1.22,2.21.86,11.45,5.64,12.76,5.64h5.97c.15-.95-.22-.52-.75-.69-6.69-2.03-10.89-5.18-16.92-7.63-2.92-1.19-5.72-2.03-8.8-1.05-.63-.62,3.03-7.45,3.73-8.37,2.42-3.2,5.64-2.31,8.85-1.15,5.71,2.07,15.25,8.99,20.83,8.55.95-.08,1.82-.47,2.74-.65l-7.82-2.6c-.27-.13-.3-.53-.66-.71-6.15-3.19-11.9-7.72-18.97-8.63,1.13-3.82,4.26-9.75,9.05-8.9,3.39.6,9.84,4.22,13.12,5.94,5.58,2.93,10.93,7.37,17.54,7.48.16-.83-.18-.56-.63-.81-1.39-.75-3.12-1.18-4.52-1.95-4.84-2.69-10.48-8.26-11.97-13.7-.98.42-.38,2.51-1.04,3.15-.25.24-2.25.73-2.68.73-2.02-.02-6.43-3.45-8.86-3.58-.1-1.81,2.04-2.98,3.44-3.8,2.28-1.32,9.14-4.95,11.41-5.7,3.15-1.05,4.92.08,7.1,2.24,4.58,4.53,8.52,11.1,12.46,16.28,3.28,4.31,8.44,8.01,7.55,14.07l-5.47,28.44.46.46,17.93-8.39-11.94-6.29c-.86-1.01.36-3.1.32-4.36.37-.08.62.04.95.17,2.18.86,4.75,2.52,7.13,3.53,2.93,1.24,5.94,2.32,8.95,3.35l4.59-2.54c.11-.57-.3-.8-.64-1.13-4.21-4.07-10.11-5.51-15.08-8.17-.78-.42-3.39-1.82-3.83-2.31-.75-.85-.81-4.03.3-3.86,4.78,3.71,10.93,4.63,16.34,7.07-1.78-2.37-3.21-4.76-4.2-7.58-4.01-11.34-1.03-19.04,5.63-28.3.16-.23.15-.61.22-.89l5.8,1.13c-3.24,9.65-10.76,24.03-1.14,32.41,1.04.91,6.11,4.18,7.24,3.73.3-.12,4.28-3.45,4.4-3.72-2.45-3.74-4.64-7.17-5.02-11.79-.14-1.76.19-3.66-.08-5.41-.53-3.39-2.61-6.44-2.84-10.72-.12-2.13-.6-5.16,2.27-4.37v6.3c0,.79,1.07,3.78,1.47,4.66.12.27.61,1.99.96.99.72-3.31.69-8.32,1.83-11.41.26-.71.87-.56,1.55-.54-.96,5.3-2.79,10.33-2.26,15.82l.97-.97c.12,1.73-.16,3.63,0,5.33ZM59.74,156.36c2.12-11.7,8.01-22.15,10.98-33.58-.87.56-1.64,1.63-2.2,2.48-5.76,8.76-9.5,19.37-9.1,29.97.01.39-.24,1.2.32,1.12ZM42.96,181.87c.56.14.64-.23.97-.48,1.85-1.43,6.77-7.03,7.29-9.21.26-1.08-.77-5.61-.85-7.25-.3-5.94.85-12.62,2.77-18.24,1.42-4.15,3.99-7.83,5.31-11.96-6.1,6.43-13.35,12.75-16.15,21.46s-1.62,17.1.65,25.67ZM53.29,168.63c3.65-6.68,2.06-13.78,3.23-20.98l-1.94,4.35c-1.7,4.21-2.13,8.74-1.94,13.26l.66,3.37ZM38.97,193.71l1.57-2.79c-5.78,5.05-17.64,10.91-20.59,18.17-.22.55-.2.63-.11,1.2.51,3.3,3.13,7.66,4.07,10.97.43-.04.53-.46.66-.79.66-1.58,1.05-3.59,1.77-5.34,3.21-7.86,8.29-14.42,12.63-21.43ZM48.45,199.63c-.23-.22-2.42,1.66-2.74,1.94-8.76,7.73-16.02,19.8-16.24,31.72l5.42,9.92c.49.12.52-.08.78-.34.64-.65,4.21-4.54,4.29-5.03-3.31-13.16,1.62-27.05,8.49-38.21ZM55.87,199.95c-.7.58-1.31,2.29-1.54,3.15-1.01,3.74-1.21,10.23-.69,14.09.13.98,1.74,8.26,2.38,8.26l5.92-5.37c-1.49-3.98-3.91-7.41-5.13-11.57-.15-.53-.96-3.34-.96-3.56v-5ZM42.63,253.06c.28-2.06-.2-4.65,0-6.78,0-.84,9.14-7.36,10.5-8.55,3.89-3.41,7.03-7.56,10.16-11.63l-25.36,20.67c-.3.44-.07.77.1,1.18.38.91,3.22,5.05,3.95,5.75.36.35.63-.55.65-.65ZM64.26,230.3c-.67-.48-3.11,3.21-3.49,3.77-3.26,4.79-9.62,16.13-10.31,21.65-.12.97-.42,5.26.45,5.54,1.95.63,8.03-5.21,9.29-6.78,4.54-5.68,5.42-13.44,4.7-20.47-.12-1.21-.41-2.52-.64-3.72ZM219.9,286.8c.65-3.16,2.5-6.88.33-9.84-1.51-2.06-4.16-2.86-6.45-3.71-.51.54,2.79,2.9,3.22,3.4,1.81,2.09,2.4,5,2.31,7.7l.6,2.46ZM209.24,293.9c2.14-4.95,2.39-9.43-3.87-10.65l2.93,4.01.94,6.64ZM197.95,294.55v7.59l.65.33c1.21-2.31,1.82-6.2-.65-7.92ZM157.58,316.82l-2.81-2.08c.5-2.5,2.12-4.61,3.78-6.47.46-.52,1.82-.75.81-1.45-1.43,1.59-3.31,2.7-4.67,4.36-.57.7-3.47,4.77-2.92,5.32l5.81.32ZM159.52,317.15c3.61.34,6.23-4.9,8.01-7.65.37-.58.92-1.37,1.03-2.04l-9.04,9.68Z"/>
  <path class="cls-1" d="M131.27,63.38c7.04.79,14.83,7.13,19.86,11.79l-5.49-1.94c.74,1.31,1.5,2.66,2.09,4.05,1.37,3.23,2.39,6.65,4.04,9.59.63,1.12,1.2,2.25,1.94,3.31-3.64.03-3.25-4.12-4.57-6.56-2.06-3.83-9.21-7.2-13.33-7.99-.41-.08-.65-.49-.99.02l4.04,10.17c-.5.5-1.58-.85-1.86-1.37-1.54-2.88-1.06-5.59-3.63-8.64-4.69-5.54-11.49-5.4-17.59-8.24-.45.19-.02.61.1.87.59,1.3,4.76,8.81,4.26,9.46-4.45-2.81-9.35-2.63-13.99-5.22-.9-.5-1.6-1.68-2.8-1.56.74,2.23,1.51,4.56,2.52,6.68.28.58,2.59,4.07,2.32,4.3-1.96,0-4.05.52-5.98.64-2.37.16-7.56.55-9.69.33-.26-.03-1.52-.25-1.45-.48,3.21-8.18,8.15-11.81,16.06-14.94,1.33-.53,3.98-1.01,4.9-1.56,1.02-.6,1.4-2.32,2.72-2.69l.22-1,.25.74-.42,2.17c2.21-1.71,4.93-1.47,7.39-2.62,1.67-.78,3.15-2.28,4.61-3.14,3.71-2.16,8.37-3.99,12.7-3.93.07-.84.04-.54-.48-.63-5.36-1-11.47-.19-16.47,1.92l-4.35,2.11c4.25-6.06,12.25-9.82,19.37-11.14.03-.61.15-.66-.49-.66-1.68.02-4.35.41-6.03.75-2.98.6-6.61,2.11-9.14,3.78-.52-.49.52-1.16.84-1.42,11.3-9.42,29.48-10.76,43.31-7.52,27.11,6.36,42.39,26.97,51.28,52.04.73,2.05,2.07,5.85,2.5,7.84.07.33.33,1.13-.24,1.05-1.67-3.28-3.65-6.4-5.34-9.67-5.03-9.71-8.45-19.26-16.81-26.8-.34-.31-.41-.94-.46-.98-.19-.17-.85-.08-.64.48.38.98,2.45,3.36,3.16,4.59,5.59,9.73,8.37,20.67,14.33,30.23,3.97,6.36,9.18,11.96,12.7,18.62,2.61,4.93,4.25,10.39,5.48,15.83.66-.43.37-.75.35-1.28-.24-6.06-1.55-11.81-4-17.34-1.36-3.06-3.68-6.09-4.82-9.06-2.3-5.98-3.52-13.64-5.8-20.03-5.33-14.92-12.78-28.05-25.92-37.37l.65-.32c.1-.33-.15-.45-.32-.65-.66-.74-5.8-3.9-7.01-4.61-13.48-7.86-30.15-11.2-45.37-6.75l-9.94,3.3c11.57-10.01,29.35-11.85,43.97-9.1,13.35,2.51,26.02,9.16,36.11,18.13,1.79,1.59,3.57,3.86,5.32,5.33.36.3.52.78,1.13.64-4.98-6.98-11.22-13.48-18.3-18.34-12.53-8.61-30.74-13.7-46.03-11.28-1.42.23-3.04.82-4.44,1.21-.18-.93.25-.52.7-.73,14.53-6.73,33.28-5.08,48.05.08l-2.02-1.69c-1.44.11-1.73-.75-2.46-1.08-8.03-3.62-16.08-5.11-24.9-5.3-.06-.47.88-.49,1.22-.55,22.84-3.88,47.61,3.66,65.45,18,21.51,17.29,33.2,42.67,36.98,69.73-3.53-1.14-7.27-1.72-10.98-1.93.01-4.26-.86-8.46-1.77-12.6-2.71-12.28-7.7-25-15.98-34.54,1.69,3.68,3.8,7.22,5.32,10.98,3.38,8.36,5.42,17.86,6.62,26.79-2.78-3.23-4.54-7.18-6.84-10.76-4.54-7.06-9.47-13.97-14.63-20.56l-.15.48c5.54,10.17,11.16,20.31,16.63,30.51,1.63,3.04,2.8,6.34,5,9.04l-13.23.83c-4.03-5.82-6.66-12.34-9.84-18.59-.13-.25-1.3-2.76-1.79-2.24l6.46,22.27c-2.64.61-5.32,1.57-7.75,2.76-.46.23-.81-.07-.65.79,1.64-.22,10.4.55,11.15,1.28,5.39,11.42,14.73,20.53,20.18,31.97.58.08.31-.72.24-1.05-1.3-6.69-5.74-17.83-9.12-23.81-.43-.76-4.04-5.81-3.72-6.13,8.06,1.6,16.32,4.33,23.58,8.22,6.49,3.48,6.01,4.15,10.06,9.64,2.55,3.47,6.13,7.13,9.3,10.07,4.25,3.93,8.37,5.99,11.05,11.55.56,1.16,1.49,3.2,1.39,4.42l-4.52-4.84c-4.32-2.28-8.82-7.56-12.89-9.71-2.69-1.42.75,2.66,1.27,3.25,3.66,4.24,8.17,6.79,12.41,10.19,2.51,2.02,6.07,4.69,5.68,8.2-4.59-4.47-10.03-8.24-15.66-11.3,2.07,5.51,5.16,10.66,7.26,16.15,2.31,6.03,3.63,12.22,6.34,18.2.54,1.2,1.58,1.85,1.61,3.26s-1.61,5.39-2.24,6.84c-1.92,4.43-5.1,9.41-8.29,13.02-.93,1.05-5.11,5.42-6.16,5.48-.63.04-10.12-4.55-11.51-5.26-12.75-6.46-20.17-13.53-25.68-26.95-.98-2.39-1.61-5.8-3.1-7.72-2.64-3.38-4.56-6.58-5.48-10.55-.06-.27-.6-2.56-1.18-1.83-.49,15.68,5.04,29.59,16.18,40.48,7.52,7.35,16.14,10.84,25.15,15.86.15.66-.27.44-.63.64-2.25,1.22-7.85,4.41-10.18,4.39-1.07,0-4.1-1.11-5.33-1.49-11.12-3.44-26.19-15.25-33.43-24.67-11.24-14.64-12.46-34.67-23.02-49.62l-4.57-6.42c-.25-.86,1.23-.44,1.59-.3,2.76,1.09,9.02,8.79,10.81,11.47,7.59,11.41,8.86,24.79,16.39,35.91,4.37,6.45,10.09,11.66,16.25,16.36l-1.12-2.02c-7.61-7.25-14.36-15.95-17.53-26.15-2.54-8.16-3.87-17.01-8.63-24.3.72-.33,1.82,1.13,2.25,1.63,4.22,4.89,7.27,12.3,9.7,18.23.55.09.35-.78.29-1.1-1.22-7.18-6.19-17.11-10.96-22.62-9.54-11-24.3-15.5-34.43-25.79-1.57-1.59-3.01-4.2-4.63-5.86,1.76.93,3.29,2.32,4.85,3.55,2.98,2.34,6.17,4.91,9.58,6.89,10.24,5.93,23.22,8.25,30.58,18.5l5.03,9.33c-.22-3.44-2-7.32-3.7-10.34-5.35-9.46-16.86-13.45-25.78-18.77-5.77-3.44-13.78-8.76-18.46-13.51-2.43-2.47-.22-2.03,1.57-2.94.91-.46,1.63-1.17,2.58-1.54,2.64,2.7,5.63,4.93,8.92,6.75.68-.74-5.02-3.77-4.03-5.17l1.43.18c8.72,5.55,18.9,9.07,26.38,16.4,2.59,2.54,4.68,5.68,7.21,8.28-.57-2.37-2.04-4.77-3.33-6.84-7.63-12.24-20.58-16.99-29.44-27.7-2.96-3.57-1.08-3.38-.81-7.27.58-8.27-6.74-14.4-12.91-18.56l.65,4.35-.33,2.75c-5.62-10.89-13.73-20.85-25.43-25.43-2.55-1-5.23-1.43-7.68-2.65-.94-.07-.27.39.06.59,1.54.97,3.55,1.65,5.17,2.57,9.84,5.6,17.44,13.4,22.38,23.62l-9.66-5.35-3.74-3.69-.49.79-.64,3.4c-5.78-14.13-21.39-20.36-35.61-14.78-1.33.52-3.28,1.37-4.11,2.51,2.53.2,5.44-.28,7.91,0ZM196.65,81.78c-7.18-17.84-22.15-34.04-42.62-34.54l9.9,4.14c8.84,4.78,16.87,10.93,23.52,18.46,3.35,3.79,6.08,7.98,9.19,11.95ZM245.41,170.57c-.07-4.14-.68-8.29-.96-12.43-.55-8.25-.47-14.3-3.15-22.36-.13-.4-.24-1.36-.73-1.36-.15,3.35.2,6.82,0,10.16-.19,3.03-1.21,6.68-1.3,9.68-.17,5.62,2.02,12.44,6.14,16.32ZM247.34,149.26c-.84-.13-.67.15-.66.82.07,4.36.98,10.38,1.72,14.75.36,2.16,1.22,7.49,2.08,9.21.74,1.48,9.96,7.46,10.75,6.86l-13.89-31.64ZM297.07,189.29c-1.95-7.12-4.43-14.07-7.46-20.79l-10.61-17.63c3.51,13.5,7.37,28.77,18.08,38.42ZM295.78,200.27l-5.22-8.17c-9.32-12.6-22.92-20.29-32.36-32.86-.9-1.2-1.36-2.77-2.77-3.52,4.55,15.94,18.99,25.25,30.68,35.67,2.87,2.56,5.7,5.87,8.55,8.24.36.3.52.78,1.13.64ZM283.19,210.28c-8.45-7.21-15.3-15.54-20.03-25.65l-11.29-6.31c1.81,9.42,7.53,19.2,15.39,24.8,4.67,3.33,10.42,5.63,15.93,7.15Z"/>
  <path class="cls-1" d="M229.91,244.82c-.58-2.37,1.53-3.9,3.43-4.8,5.04-2.4,8.76-.17,13.62.83,47.77,9.78,85.47-34.7,72.87-80.62-6.53-23.8-25.21-41.64-48.85-48.34-3.24-.92-7.31-1.44-9.97-2.35l-7.53-.32,15.91,5.24c21.1,8.64,38.22,25.03,43.67,47.71,6.03,25.12-4,51.77-26.34,65.03-17.09,10.15-36.7,9.9-54.22.83-.21,2.14,1.42,3.64.96,5.81-.82.16-.57-.15-.81-.63-.78-1.55-.28-3.25-.96-4.86l-8.67,10.3-1.83-1.42c3.57-3.6,6.91-7.69,9.57-12.07,3.88,1.08,7.68,2.7,11.66,3.44,44.71,8.26,77.34-34.11,60.61-75.78-10.41-25.94-37.92-41.96-65.05-44.25.07-.5,1.38-.51,1.83-.59,33.96-5.82,69.7,14.63,81.07,47.01,16.48,46.9-21.01,97.99-71.61,88.39-4.97-.94-10.71-4.24-15.39-1.53-.51.3-3.72,3.26-3.97,2.97Z"/>
  <path class="cls-1" d="M123.84,33.35c.64.08,4.69,1.29,4.68,1.78-5.88,4.32-10.22,10.04-13.55,16.49-1.73-.24-3.29-1.24-5.05-1.44-4.76-.56-9.76,1.07-13.69,3.68,1.56-.07,3.05-.7,4.67-.82,5.81-.43,10.49,1.06,10.18,7.76-10.26-8.11-23.39,1.82-28.87,11-.75,1.26-1.15,2.79-2.12,3.85-.13-1.01-.58-2.11-1.02-3.02-.33-.68-1.45-2.13-1.52-2.38-.11-.41.77-3,1.03-3.54,4.29-8.98,12.36-16.86,21.53-20.92,5.6-2.48,12.3-4.37,18.4-4.69-.13-.52-1.4-.78-1.86-.88-5.01-1.1-10.4.36-15.26,1.53,12.18-12.64,29.99-20.05,47.62-20.01l2.42.64c-6.45,1.38-12.63,4.38-17.35,8.99-6.08-1.15-11.85-.35-17.52,1.99.1.89,1.57,0,1.77,0,1.69,0,3.89-.19,5.49,0Z"/>
  <path class="cls-1" d="M149.19,89.21c.24.82.83,1.71,1.61,2.1,1.96.98,10.18,3.06,12.47,3.35.47.06.95.05,1.42.03l-.97-1.29c1.65.15,3.32.79,5,.65,1.88-.16,3.52-2.01,5.65-1.62l-1.61-1.29c3.09.36,5.7,2.13,8.72,2.58-.1-2.46-1.99-4.1-3.16-6.03-.94-1.55-1.36-3.64-2.97-4.62l.82,2.25-.17.65c-.53-1-1.62-1.21-2.41-2.28-.56-.76-1.05-2.01-1.48-2.88-.97.24.3,1.79-.16,2.26l-5-4.52,2.26,3.39-1.29.32,4.19,2.11-1.93.31c2.25.05,3.29,1.43,5.16,2.27l-1.61.64,3.19,1.17,2.62,2.06c-8.46-.24-15.34-8.11-14.69-16.46,2.79,3.51,7.73,4.54,11.25,7.16,3.83,2.85,5.15,8.58,6.33,12.96,2,1.91,7.07,4.7,8.6,6.65,1.35,1.72,1.24,5.25,4.41,5.95.77.17,1.98-.51,1.86.36-.66,1.03-1.85.97-2.92.66-2.56-.75-3.62-5.93-5.46-7.77-.86-.87-8.53-5.76-9.56-5.94-.24-.04-.76-.17-.78.14,1.23.58.74,2.58,1.01,3.03.08.13,2.26.82,2.87,1.18.42.25.81-.06.64.8l-4.29-.34c-2.81,4.23-8.06,1.94-10.26-1.74-.27-.45-.17-1.3-.51-1.49-.36-.21-6.74-1.12-7.74-1.23-1.56-.18-3.25-.46-4.81-.38-3.15.17-6.5,1.53-9.83.98l1.29.32v.97s-3.55.33-3.55.33l.64.96-3.55,2.26,5.32-2.26c.11,1.08-2.11,1.05-1.29,2.26,1.36-.9,1.92-3.07,3.71-2.9l-.48,2.26c1.41-1.72,2.32-4.1,5.01-3.87.07.05-.8,1.25-.98,1.46-2.06,2.51-4.69,4.64-8.23,4.99-2.75.28-5.26-.69-7.91,0,3.33-2.8,6.5-7.59,11.14-8.06,2.6-.26,5.11.52,7.58,0-.67-.61-2.29-1.22-3.16-1.52-3.05-1.02-9.11-2.75-12.15-2.33-2.75.38-4.99,3.51-7.32,4.95-4.81,2.97-8.61,1.28-13.86,1.48-.15-.56.23-.65.48-.97,1.44-1.88,4.66-5.09,6.72-6.19.47-.25,4.39-1.49,4.09-1.87-1.91-.39-4.09-1.33-6-1.59-6.08-.84-9.59.14-13.83-5.54-.62-.83-3.53-5.5-3.09-6.11,3.78,2.63,8.49,1.92,12.37,4.57,2.89,1.97,3.89,5.73,7.42,7.11,1.53.6,10.33,2.65,11.7,2.56.65-.05.31-.74.92-.69,1.7.14,4.26,1.7,6.5,1.94.3.03,1.09.17.64-.32-3.78-1.71-5.36-4.22-7-7.85l-1.4-4.09c4.68,1.82,9.28,3.36,11.2,8.49.44,1.18.33,2.24.59,3.13-2.48-2.15-4.09-4.92-6.61-7.11-.33-.29-2.17-1.85-2.43-1.6l2.58,3.39-.64.8,2.9,1.46-1.29.8c1.99.74,3.9,1.99,5.33,3.55l.16-1.29ZM115.61,79.52l.16,1.28-5.65-3.22c-.57.61,2.33,2.17,2.58,2.75l-.97.8c1.6-.09,3.63.1,4.52,1.61l-1.29.65c2.78.22,5.13.68,7.75,1.61-1.73-1.43-3.46-2.54-4.2-4.84-.93.14.72,1.82-.47,1.61l-2.42-2.26ZM138.21,89.21c-3.63-.1-6.68,1.4-10.33,0l1.78,1.29c-1.7.89-3.08,1.5-5.01.97l.64.8-3.55,2.75,4.84-1.61-.97,1.45c1.87.17,2.63-3.46,4.84-2.59-.47.56-1.7,1.21-1.13,2.1l2.43-2.9,1.12.64,2.13-1.74,3.2-1.16ZM173.65,93.81c-5.65.75-3.39,5.7.64,5.97,5,.33,5.22-6.74-.64-5.97Z"/>
  <path class="cls-1" d="M240.89,244.18c.34.38-2.41,6.97-2.85,7.96-2.53,5.72-5.67,12.4-8.52,17.96-.13.25-.25.56-.57.55.05-1.94-5.38-6.56-5.12-7.83.09-.42,2.41-3.74,2.87-4.27,1.99-2.35,5.34-4.26,5.78-7.78.15-1.18-.52-3.38-.14-4.01.08-.14,2.18-1.9,2.45-2.08,1.92-1.29,3.96-.9,6.11-.5Z"/>
  <path class="cls-1" d="M107.86,85.98c-.09.54.8.36,1.13.32,1.27-.16,2.11-.79,3.55-.66,1.08.1,1.98.88,3.06.99l-2.44.62-1.1.83c0,.32,4.76,3.89,5.08,3.98.84.24,1.53-.3,2.34-.27.16,1.03-.79,1.81-1.68,2.06-2.69.75-6.18-4.6-7.8-4.34-.27.04-2.4,3.87-2.98,4.52-.32.37-.5.8-1.1.67l2.28-6.61c-.07-.87-1.23-.96-1.81-1.45-.45-.39-.58-.91-.91-1.2-.21-.19-1.14-.32-1.49-1.07.35,1.08,1.01,1.83,1.38,2.98,1.37,4.21.8,7.87-4.13,8.32s-7.47.07-7.27-5.34l1.14-5.32c-1.94.83-1.99,2.95-4.03,3.72,2.26,1.42,2.18,4.33,2.9,6.62-.51.54-2.45-3.16-2.76-3.54-.4-.49-1.02-.61-1.28-1.31-1.03.04-4.17,4.54-5.67,5.02-1.08.34-3.74-.06-3.2-1.78,1,.07,1.48.52,2.49.08.4-.17,4.22-3.84,4.28-4.13.1-.46-.25-.54-.55-.73-.65-.4-1.95-.41-2.35-1.03,2.46-1.83,4.36-.64,7.1-.65-.54-.87-1.7-.38-2.6-1.11-.23-.18-.41-.47-.62-.67-.08-.36.22-.65.53-.75,1.48-.46,4.51.22,6.1.12,3.97-.26,7.35-.73,11.62-.8,1.32-.02,2.56-.92,3.69.47-.73.84-1.78,1.4-2.9,1.46ZM96.77,85.71c-1.9,1.27-2.14,7.64-.21,8.5.93.41,5.87.27,6.76-.33,1.57-1.06,1.13-6.78-.14-7.9-.85-.75-5.06-.15-6.41-.27Z"/>
  <path class="cls-1" d="M135.72,85.89c.18.27,1.3.67,1.52,1.22-.4.48-1.03-.42-1.61-.65-3.44-1.37-6.62-1.64-9.69-4.19-3.44-2.86-4.91-8-7.1-11.79,6.78,1.42,12.55,3.42,15.45,10.21.55,1.29,1.12,4.72,1.43,5.19ZM134.98,85.01c-3.65-4.44-7.68-8.47-12.27-11.94.64,2.31,2.9,3.72,4.52,5.33h-1.93c2.02,1.09,3.99,2.04,5.49,3.87l-1.93.48,6.13,2.26Z"/>
  <path class="cls-1" d="M167.27,98.89c-2.26.19-4.08-.04-6.13-.96-.17,1.24,1.28.94,1.61,1.61-2.22.31-4.07-.43-6.13-.96l1.61,1.61-4.19.98c1.54,1.64,4.52-.52,6.46-.32-.22.92-2.25,1.16-1.78,2.25,2.92-2.35,5.95-2.49,9.53-2.9-.82,2.9-4.79,4.59-7.59,4.84-4.45.4-7.75-2.17-12.1-2.26,3.17-2.43,6.83-6.8,11.1-6.74,2.24.03,5.94,1.33,7.62,2.87Z"/>
  <path class="cls-1" d="M163.39,92.43l-5.17-7.58-5.32-5.01c-.07,1.41,1.64,2.43,2.42,3.39l-1.29.16v.64c1.36.41,4.12,2.38,4.51,3.73s-2.36-.64-1.93.8c2.58.25,4.34,2.14,5.97,3.89.24.26.75.26.8.31.17.19.15.78-.45.61-.86-.24-4.91-2.36-5.79-2.93-4.9-3.19-5.87-9.55-8.29-14.47l7,3.49c5.31,2.33,7.95,7.21,7.53,12.97Z"/>
  <path class="cls-1" d="M218.61,236.43c.45-5.11,2.36-9.82,2.9-15.02.65-6.22.09-12.49.32-18.73.01-.39-.24-1.2.32-1.12,1.03,3.15,1.95,6.34,2.49,9.62,1.36,8.34.27,12.76-2.98,20.39-.73,1.73-1.41,3.77-3.05,4.85Z"/>
  <path class="cls-1" d="M76.54,75.32l-1.29,2.91-.33-5.49-.96,3.23-1.29-3.87c-.12,3.14,1.36,6.08,1.93,9.04l-.96-.65c-.76,1.02,4.31,3.77,3.39,5.49-7.61-4.05-6.24-13.47-5.49-20.66,2.67,4.8,7.04,7.18,7.58,13.08.19,2.05-.03,4.27-.32,6.29-.94-.57-2.26-3.45-2.26-4.36v-5Z"/>
  <path class="cls-1" d="M185.03,77.91c4.13,4.08,9.04,7.99,8.73,14.38-.14,2.91-2.11,5.98-.66,8.38-.78.59-1.64-1.57-1.63-2.26,0-.8.82-2.42.95-3.59.18-1.58.14-3.44-.29-4.96l-.64.96-.65-4.84-.64,1.29-3.24-6.45c-.57-.08-.33.74-.25,1.05.42,1.58,1.53,3.25,2.19,4.75-.39.37-1.74-1.1-1.62-1.61l-.63.48,3.22,3.88c-.04.77-3.31-2.13-2.58-.65.23.47,1.2.62,1.59,1,2.16,2.08,2.98,4.58,2.6,7.56l-3.03-3.26c-.94-2.06-3.43-5.26-3.43-7.55v-8.56Z"/>
  <path class="cls-1" d="M183.74,106.64c.47-.26,1.09-.28,1.46-.97l.95.63c1.41-.78,2.31-2.62,4.05-2.57l-3.05,3.89c-3.77,3.45-9.16,1.72-13.74,2.56,2.66-6.28,7.49-10.38,14.6-7.97.34.11.98.07.9.54-2.27.67-4.21.97-6.45,0l1.61,1.61-4.52.33,1.61.96c-1.64.39-3.49,1.17-4.52,2.58l4.68-1.94-.97,1.94,3.23-2.59c.78-.2.27.69.17.97-.42.24-1.05.03-.97,1.29.7-.19.76-.76.97-1.29Z"/>
  <path class="cls-1" d="M165.03,87.25c-.69-2.16-2.11-4.55-3.3-6.54-2.73-4.57-5.66-9.4-9.98-12.62-2.04-1.52-4.44-2.48-6.43-4.06,5.53,1.1,11.76,4.98,15.49,9.21,3.35,3.79,2,4.58,3.55,8.72.43,1.16,2.94,4.51,1.96,5.18l-1.29.13Z"/>
  <path class="cls-1" d="M86.76,85.22c-1.72,1.51-5.03,2.97-7.3,3.2-.34.04-.89.42-.66-.34.66-2.22,3.97-2.4,5.81-2.75l-1.29-.8,4.36-2.42-1.46-.16c.46-.29,3.37-2.56,2.9-3.07l-5.01,3.87c-.92.46.32-2.41-.8-1.29-.25.26-.46,2.57-1.46,2.9l-.48-2.25c-.13.38-1.66,3.84-2.26,3.22.5-.8.67-1.77,1.12-2.59,2.74-5.06,8.47-3.89,12.12-8.06-.5,3.32-3.08,8.33-5.6,10.54Z"/>
  <path class="cls-1" d="M256.71,227.07c-1.93-.64-3.54-.01-5.46-.03-.46-1.89-.84-3.95-1.49-5.77-.29-.8-2.61-5.25-2.41-5.5,1.77,1.74,6.36,3.55,7.75,5.32,1.1,1.39,1.33,4.24,1.6,5.98Z"/>
  <path class="cls-1" d="M77.83,95.99c-1.98-1.71-4.12-5.19-6.93-5.5-.71-.08-.81,0-.09.41.89.5,1.82.9,2.5,1.7l-.97.32c1.97,1.02,3.15,2.52,4.52,4.2-2.43.71-4.44-1.85-5.94-3.42l-3.74-6.1c4.62.54,9.85,3.39,10.65,8.39Z"/>
  <path class="cls-1" d="M89.45,126.01c-2.47-.15-4.72.94-6.45,2.58l-2.91-7.75c.42-.39,6.48,2.29,7.33,2.84.32.21,2.51,1.92,2.03,2.32Z"/>
  <path class="cls-1" d="M88.67,258.91c-.61,1.44-1.93,3.9-2.83,5.39-2.45,4.03-5.84,7.2-9.14,10.55.99-1.93,2.69-3.56,3.98-5.38,2.81-3.96,5.88-8.97,7.98-13.33.83-1.72,1.28-3.85,2.41-5.17.31.42-1.97,6.96-2.39,7.95Z"/>
  <path class="cls-1" d="M239.59,214.15c.94,3.76,2.81,7.37,2.91,11.3l-3.57-.52c.12-2.46-.1-4.94,0-7.4.04-1.08.75-2.21.02-3.22l.64-.16Z"/>
  <path class="cls-1" d="M76.86,90.5l-5.66-3.55c-.44-.5.23-3.24.65-3.23.85.75,1.56,1.68,2.42,2.42,1.75,1.52,3.42,1.61,2.58,4.35Z"/>
  <path class="cls-1" d="M123.36,88.24c-.22,2.72-3.37,1.21-4.7,1.26-.62.02-.32.69-.94.72-1.26.06-1.64-.7-2.43-1.49-.04-.09.76-.48.81-.48h7.27Z"/>
  <path class="cls-1" d="M214.44,250.35l2.07-1.32,2.03,1.45c-.3.62-1.6,2.88-2.31,2.73l-1.79-2.86Z"/>
  <path class="cls-1" d="M83.51,75.2c-.06.11-.38.16-.49.37-.57,1.16-.4,3.04-1.81,3.94-.71.13-.48-.29-.45-.77.16-2.33,3.91-7.61,5.78-9.24-.9,1.96-2.04,3.77-3.03,5.69Z"/>
  <path class="cls-1" d="M183.1,88.24l5.01,8.39c-3.1-1.77-5.57-4.57-5.01-8.39Z"/>
  <path class="cls-1" d="M77.83,99.22c-.75,1.88-1.1,4.4-2.58,5.81-.68-2.57-.78-5.73,2.58-5.81Z"/>
  <path class="cls-1" d="M215.36,247.76c.33.45-.67,2.33-1.39,2.21l-3.76-4.17c1.93.08,3.44,1.28,5.14,1.96Z"/>
  <path class="cls-1" d="M88.24,135.94c1.05,1.09,2.48-.94,2.83-.57l-.68,2.86c-2.39.51-3.54-1.89-3.53-3.94l.99-.54c.01.63-.05,1.71.4,2.18Z"/>
  <path class="cls-1" d="M92.03,130.53c-1.67-.68-3.26-1.05-5.06-1.27-.65-.08-1.47.58-1.72-.34,2.7-1.9,5.37-1.58,6.78,1.61Z"/>
  <path class="cls-1" d="M170.82,91.78c-2.8,1.05-4.41-.82-3.55-3.55.59.64,4.22,2.54,3.55,3.55Z"/>
  <path class="cls-1" d="M197.62,106.32c-.42-1.08-5.46-3.97-5.48-4.36-.07-1.6,4.37,1.46,4.68,1.78.75.79.91,1.5.8,2.58Z"/>
  <polygon class="cls-1" points="83.28 97.32 83.17 98.27 82.78 98.52 80.11 98.55 79.77 95.34 83.28 97.32"/>
  <path class="cls-1" d="M85.26,90.18l-2.16,1.88c-1.1-.68-2.05-.69-3.33-.6-1.18-1.02,5.02-1.55,5.49-1.29Z"/>
  <path class="cls-1" d="M199.24,108.24c-.07-.09.2-1.56.77-1.25l4.07,3.36c-1.85-.12-3.07-1.74-4.83-2.11Z"/>
  <path class="cls-1" d="M221.2,260.32c-.26-1.69,1.4-2.33,1.77-3.87,1.39,1.46-.21,3.44-1.77,3.87Z"/>
  <path class="cls-1" d="M217.32,255.16c.13-1.48,1.19-2.58,1.77-3.87l.76.85c.16.79-1.83,2.55-2.53,3.02Z"/>
  <path class="cls-1" d="M92.04,133.12l-.65,1.93c-.61.45-4.15-3.22.65-1.93Z"/>
  <path class="cls-1" d="M88.81,140.87c.19.17-.76,2.2-1.29,2.26v-2.26s1.29,0,1.29,0Z"/>
  <polygon class="cls-1" points="89.13 139.58 88.7 140.17 86.55 138.93 89.13 139.58"/>
  <path class="cls-1" d="M219.9,254.83c-.08-.68.7-1.27,1.29-1.61.08.68-.7,1.27-1.29,1.61Z"/>
  <path class="cls-1" d="M124,83.07c-.71-.42-1.5-1.42-1.61-2.26l1.61,2.26Z"/>
  <rect class="cls-1" x="109.48" y="294.55" width=".32" height=".64"/>
  <path class="cls-1" d="M225.07,255.48c.24-2.03,3.45-3.28,3.55-5.36.09-1.8-4.83-6.68-6.63-7.23-.17-.05-.53-.09-.48.15,1.49,1.2,2.34,2.68.65,4.21-1.27,1.15-1.88-.41-3.23-.49l2.1,2.9c-2.54-2.44-5.55-4.42-8.88-5.65-.55-.39-.17-.34-.01-.65.34-.67,2.78-4.3,3.25-4.51,1.54-.71,5.04,1.06,6.43,1.96,2.64,1.71,8.73,7.38,7.63,10.81-.23.71-3.77,4.43-4.38,3.86ZM217.96,240.31c-2.32-1.1-3.69,1.68-4.19,3.54l1.56.29,2.63-3.83Z"/>
  <path class="cls-1" d="M181.15,137.15c-1.76,14.87-19.59,24.33-20.6,37.55-.08,1.08.37,1.06,1.29.96,6.01-.65,15.38-8.34,20.1-12.21,1.83-1.5,4.55-5.02,7.11-4.86,1.39.08,3.19,2.11,3.87,3.26.34-.23.39-.46.47-.83.64-3.15,4.03-6.6,4.5-10.34.14-1.15-.08-2.32.08-3.47.47-1.43,3.47.09,4.05.86,1.16,1.55.73,4-.15,5.62-1.05,1.91-4.67,3.92-2.95,6.36.64.92,3.1.5,4.18.36l5.64-4.04c.79.4,3.67,8.1,3.7,9.24.02.84-.85,2.1-1.42,2.72-4.12,4.43-12.15,7.01-16.31,1.28-2.09,8.78-4.52,17.82-8.99,25.72-6.66,11.79-28.65,21.6-41.07,26.41-8.84,3.43-20.83,7.6-30.19,8.56-7.47.77-16.89-1.04-18.16-9.92-.63-4.39-.23-8.04-1.52-12.69-.4-1.46-1.26-2.71-1.46-4.18,2.6.57,3.93,4.08,4.2,6.46,1.15-.23,2.07-1.11,3.23-1.45,3.21-.94,6.79-.47,10.01.16-1.27-2.86-3.07-4.31-6.14-5l6.14-4.35c-4.61,1.21-8.8,3.23-13.73,2.91-4.14-.26-6.72-2.38-4.75-6.71.9-1.98,3.07-1.16,4.72-1.42,3.38-.53,5.82-1.23,9.41-.94,2.09.17,4.15,1.06,6.16,1.26,2.87.29,5.66-.32,8.52-.29-.1-3.38-1.48-2.16-3.3-2.34-5.3-.52-11.32-4.64-16.4-6.53-.85-.31-2.86-1.14-3.63-1.07-1.69.16-3.34,2.17-5.16,1.81-.67-.13-1.28-.83-2.05-.91-2.83-.28-2.2,4.57-1.49,6.36.56,1.41,2.72,2.95,1.04,4.29-.09-2.11-1.66-3.43-2.17-5.41-.67-2.57.15-4.78-.23-6.87-.29-1.58-1.33-3.71-1.71-5.39-.53-2.35-.69-5.01-1.36-7.35,4.81,1.45,6.8,4.05,6.13,9.21,1.34-.84,1.57-3.05,1.94-4.52,2.02,1.51,2.25,4.73,2.26,7.1,2.56-.11,1.53-4.32.98-5.98-.6-1.82-1.95-2.86-1.3-4.99-3.66-.31-7.93-1.74-11.08-3.62-9.7-5.79-2.47-10.86,1.65-16.95,2.66-3.92,7.82-12.7,8.61-17.21,1.35-7.65-3.24-14.96-10.27-17.82-.64-.26-3.09-.61-3.12-1.07,2.1-4.5,3.03-9.75,4.1-14.62.62-1.35,2.4-.54,2.03-1.85-.03-.11-.62-.14-.66-.36-.31-1.58,2.86-3.13,3.41-4.66,1.46-.25,2.31,3.45,3.61,3.82,4.61.24,9.69.83,14.09-.63l3.6-4.48c.78.12,1.73,1.55,2.44,2.09.61.46,2.69,1.05,2.54,1.91-.08.45-1.15.76-.94,1.49,6.16.72,12.45,2.23,18.19-1.02,1.14-.65,2.84-2.25,3.94-3.16.46-.38.64-1.1,1.04-1.29,1.56-.74,4.77.2,6.53.31.59.6-2.36,1.75-2.69,1.99-2.54,1.83-4.39,4.19-6.67,6.25-.39.35-3.03,1.93-2.59,2.42,2.07.2,4.56.6,6.6.66,4.66.14,6.74-.47,11.47.8,6.24,1.67,10.72,4.35,16.93-.16,1.24,2.56,4.91,4.38,3.74,7.42,2.91-.72,4.96,3.38,6.19,5.6,4.12,7.44,4.42,14.21,9.95,21.04,1.49,1.84,2.93,3.75,4.84,5.17-.29.51-.73-.11-1-.29-1.98-1.29-4.23-3.11-5.78-4.87s-2.68-4.06-4.19-5.98c-.13,1.5.17,3.22,0,4.68ZM153.06,114.39c-7.36-3.72-16.49-8.62-25.02-8.07-6.04.39-18.46,4.96-23.2,8.77-2.05,1.65-2.56,3.43-.55,5.6,1.65,1.77,3.66.6,5.51-.32,9.58-4.72,14.5-11.46,26.53-9.77,5.15.72,10.43,3.25,15.35,4.02.35.05,1.42.38,1.37-.24ZM144.02,126.02c-6.52-3.35-13.52-7.07-21.14-6.46-3.35.27-6.04,1.3-7.43,4.51l-1.45-1.28.64,2.58-2.26-.16c.15,1.05,3.98,2.78.65,2.74l1.61.65-.65,2.9,3.23-2.26c.13,2.48-1.5,3.94-1.93,6.13,1.44-.52,3.21-1.4,4.71-.67l.28-.62c4.92,2.83,8.53-1.57,7.93-6.46.29-.31,6.22,1.95,6.63,2.57.5.76-1.01,1.3-1.14,1.94l4.2-1.61c-5.12,4.41-11.57,5.02-18.08,5.17l4.02.98c7.65.52,11.51-2.19,17.82-5.45,2.26-1.17,5.15-1.44,6.57-3.92-5.32,1.34-10.06-1.5-15.17-2.75-3.55-.87-7.21-1.51-10.79-1.75l-.2-.82c3.16-1.89,8.4-.29,11.81.78s6.45,2.7,9.73,3.84l.43-.59ZM101.08,172.82c5.54,1.49,9.46-4.61,6.62-9.36-.18,2.99-.39,5.76-3.15,7.5-1.21.77-2.67.76-3.47,1.85ZM100.75,170.89c1.48-4.81-10.56-6.47-11.57-3.98-.42,1.03.76,1.61,1.62,1.83,1.59.41,3.47.25,5.18.63s3.08,1.48,4.77,1.52Z"/>
  <path class="cls-1" d="M185.84,105.03c.21.11.21.22,0,.32v-.32Z"/>
  <path class="cls-1" d="M108.34,292.93c.21.11.21.22,0,.32v-.32Z"/>
  <path class="cls-1" d="M107.86,64.67c.49.46-.04.58-.48.64-5.03.63-8.68.61-13.3,3.18-3.63,2.02-4.83,4.15-7.27,7.26-.18.23-.55.96-.91.7,3.7-8.52,12.22-15.47,21.95-11.78Z"/>
  <path class="cls-2" d="M42.96,181.87c-2.28-8.57-3.43-17.04-.65-25.67s10.05-15.04,16.15-21.46c-1.32,4.13-3.89,7.81-5.31,11.96-1.92,5.62-3.07,12.3-2.77,18.24.08,1.64,1.11,6.17.85,7.25-.52,2.17-5.44,7.77-7.29,9.21-.32.25-.41.62-.97.48Z"/>
  <path class="cls-2" d="M48.45,199.63c-6.87,11.16-11.79,25.05-8.49,38.21-.08.49-3.64,4.39-4.29,5.03-.27.27-.29.46-.78.34l-5.42-9.92c.22-11.92,7.48-23.99,16.24-31.72.32-.28,2.51-2.17,2.74-1.94Z"/>
  <path class="cls-2" d="M64.26,230.3c.23,1.2.52,2.5.64,3.72.72,7.03-.16,14.79-4.7,20.47-1.26,1.58-7.34,7.41-9.29,6.78-.87-.28-.57-4.58-.45-5.54.7-5.53,7.05-16.87,10.31-21.65.38-.56,2.82-4.26,3.49-3.77Z"/>
  <path class="cls-2" d="M38.97,193.71c-4.34,7.01-9.42,13.56-12.63,21.43-.72,1.75-1.11,3.75-1.77,5.34-.14.33-.23.75-.66.79-.94-3.31-3.56-7.67-4.07-10.97-.09-.57-.11-.64.11-1.2,2.95-7.26,14.81-13.12,20.59-18.17l-1.57,2.79Z"/>
  <path class="cls-2" d="M55.87,199.95v5c0,.22.8,3.03.96,3.56,1.22,4.15,3.63,7.58,5.13,11.57l-5.92,5.37c-.65,0-2.25-7.29-2.38-8.26-.52-3.86-.32-10.35.69-14.09.23-.86.84-2.56,1.54-3.15Z"/>
  <path class="cls-2" d="M42.63,253.06c-.01.1-.29,1-.65.65-.72-.7-3.57-4.84-3.95-5.75-.17-.41-.39-.74-.1-1.18l25.36-20.67c-3.14,4.07-6.28,8.22-10.16,11.63-1.36,1.19-10.5,7.71-10.5,8.55-.2,2.13.28,4.72,0,6.78Z"/>
  <path class="cls-2" d="M59.74,156.36c-.56.08-.3-.73-.32-1.12-.4-10.6,3.34-21.21,9.1-29.97.56-.85,1.33-1.92,2.2-2.48-2.97,11.42-8.86,21.87-10.98,33.58Z"/>
  <path class="cls-2" d="M53.29,168.63l-.66-3.37c-.18-4.52.25-9.04,1.94-13.26l1.94-4.35c-1.17,7.2.42,14.3-3.23,20.98Z"/>
  <path class="cls-2" d="M283.19,210.28c-5.51-1.52-11.25-3.82-15.93-7.15-7.86-5.6-13.58-15.38-15.39-24.8l11.29,6.31c4.73,10.12,11.58,18.44,20.03,25.65Z"/>
  <path class="cls-2" d="M295.78,200.27c-.61.14-.77-.34-1.13-.64-2.85-2.37-5.68-5.68-8.55-8.24-11.68-10.42-26.13-19.73-30.68-35.67,1.41.75,1.87,2.32,2.77,3.52,9.44,12.57,23.04,20.26,32.36,32.86l5.22,8.17Z"/>
  <path class="cls-2" d="M247.34,149.26l13.89,31.64c-.79.6-10.01-5.38-10.75-6.86-.86-1.72-1.72-7.05-2.08-9.21-.73-4.37-1.65-10.4-1.72-14.75-.01-.67-.18-.95.66-.82Z"/>
  <path class="cls-2" d="M297.07,189.29c-10.71-9.64-14.56-24.92-18.08-38.42l10.61,17.63c3.03,6.72,5.51,13.66,7.46,20.79Z"/>
  <path class="cls-2" d="M196.65,81.78c-3.12-3.97-5.85-8.16-9.19-11.95-6.65-7.53-14.68-13.68-23.52-18.46l-9.9-4.14c20.47.5,35.44,16.7,42.62,34.54Z"/>
  <path class="cls-2" d="M245.41,170.57c-4.13-3.88-6.31-10.7-6.14-16.32.09-3,1.11-6.64,1.3-9.68.21-3.34-.15-6.81,0-10.16.49,0,.6.97.73,1.36,2.67,8.06,2.59,14.11,3.15,22.36.28,4.14.89,8.29.96,12.43Z"/>
  <path class="cls-2" d="M100.75,170.89c-1.69-.05-3.06-1.14-4.77-1.52s-3.59-.22-5.18-.63c-.86-.22-2.04-.8-1.62-1.83,1.01-2.49,13.05-.83,11.57,3.98Z"/>
  <path class="cls-2" d="M101.08,172.82c.8-1.09,2.26-1.09,3.47-1.85,2.75-1.75,2.96-4.51,3.15-7.5,2.84,4.74-1.08,10.84-6.62,9.36Z"/>
  <path class="cls-2" d="M173.65,93.81c5.86-.77,5.64,6.3.64,5.97-4.03-.27-6.29-5.23-.64-5.97Z"/>
  <path class="cls-2" d="M138.21,89.21l-3.2,1.16-2.13,1.74-1.12-.64-2.43,2.9c-.57-.89.66-1.54,1.13-2.1-2.21-.87-2.97,2.75-4.84,2.59l.97-1.45-4.84,1.61,3.55-2.75-.64-.8c1.92.53,3.31-.08,5.01-.97l-1.78-1.29c3.65,1.4,6.7-.09,10.33,0Z"/>
  <path class="cls-2" d="M115.61,79.52l2.42,2.26c1.2.21-.45-1.47.47-1.61.74,2.3,2.47,3.41,4.2,4.84-2.62-.93-4.96-1.39-7.75-1.61l1.29-.65c-.89-1.51-2.92-1.7-4.52-1.61l.97-.8c-.25-.58-3.15-2.13-2.58-2.75l5.65,3.22-.16-1.28Z"/>
  <path class="cls-2" d="M96.77,85.71c1.35.11,5.56-.48,6.41.27,1.27,1.12,1.72,6.84.14,7.9-.89.6-5.83.74-6.76.33-1.94-.86-1.69-7.22.21-8.5Z"/>
  <path class="cls-2" d="M134.98,85.01l-6.13-2.26,1.93-.48c-1.49-1.84-3.47-2.79-5.49-3.88h1.93c-1.62-1.6-3.87-3.01-4.52-5.33,4.59,3.48,8.62,7.5,12.27,11.94Z"/>
  <path class="cls-2" d="M217.96,240.31l-2.63,3.83-1.56-.29c.51-1.87,1.87-4.64,4.19-3.54Z"/>
  <path class="cls-1" d="M191.48,245.46c-2.23,1.02-5.89,2.46-7.56,4.23-.41.43-.27,1.25-.82,1.27-1.42-3.65-.46-11.37,5.08-9.12.19.08,3.04,2.48,3.16,2.65.21.31.19.62.15.96Z"/>
  <path class="cls-1" d="M169.07,313.14c-.05.06-1.36,1.69-1.15.63l4.84-6.62c-.92,2.09-2.22,4.24-3.69,6Z"/>
  <path class="cls-2" d="M219.9,286.8l-.6-2.46c.09-2.7-.5-5.61-2.31-7.7-.43-.49-3.73-2.86-3.22-3.4,2.29.86,4.94,1.65,6.45,3.71,2.17,2.96.33,6.69-.33,9.84Z"/>
  <path class="cls-2" d="M157.58,316.82l-5.81-.32c-.56-.55,2.34-4.62,2.92-5.32,1.37-1.66,3.24-2.77,4.67-4.36,1.02.7-.35.93-.81,1.45-1.66,1.86-3.28,3.97-3.78,6.47l2.81,2.08Z"/>
  <path class="cls-2" d="M209.24,293.9l-.94-6.64-2.93-4.01c6.26,1.21,6.01,5.7,3.87,10.65Z"/>
  <path class="cls-2" d="M159.52,317.15l9.04-9.68c-.11.67-.65,1.46-1.03,2.04-1.78,2.75-4.4,7.99-8.01,7.65Z"/>
  <path class="cls-2" d="M197.95,294.55c2.47,1.72,1.86,5.61.65,7.92l-.65-.33v-7.59Z"/>
  <path class="cls-2" d="M153.06,114.39c.05.61-1.02.29-1.37.24-4.92-.78-10.2-3.3-15.35-4.02-12.04-1.69-16.95,5.05-26.53,9.77-1.86.91-3.87,2.09-5.51.32-2.02-2.17-1.51-3.95.55-5.6,4.74-3.81,17.16-8.38,23.2-8.77,8.52-.55,17.66,4.35,25.02,8.07Z"/>
  <path class="cls-2" d="M144.02,126.02l-.43.59c-3.28-1.13-6.42-2.8-9.73-3.84s-8.64-2.67-11.81-.78l.2.82c3.58.23,7.24.87,10.79,1.75,5.11,1.25,9.85,4.09,15.17,2.75-1.43,2.48-4.31,2.75-6.57,3.92-6.3,3.26-10.16,5.98-17.82,5.45l-4.02-.98c6.51-.14,12.96-.76,18.08-5.17l-4.2,1.61c.13-.64,1.64-1.18,1.14-1.94-.41-.62-6.34-2.88-6.63-2.57.61,4.89-3.01,9.28-7.93,6.46l-.28.62c-1.5-.73-3.27.15-4.71.67.43-2.19,2.07-3.65,1.93-6.13l-3.23,2.26.65-2.9-1.61-.65c3.33.04-.5-1.7-.65-2.74l2.26.16-.64-2.58,1.45,1.28c1.39-3.21,4.08-4.24,7.43-4.51,7.62-.62,14.62,3.11,21.14,6.46ZM121.42,123.75c.27-1.3-1.1-1.45-1.93-1.94l.14,1.63,1.79.3ZM126.91,126.98c-1.42-.06-3.15-.3-2.42,1.62l.63.51,1.79-.2v-1.93ZM120.89,132.36c2.34,2.46,5.66.48,5.68-2.59l-.78-.52c-1.94,3.33-3.63,1.97-5.65-.32-.05,1.28-.19,2.44.75,3.44Z"/>
  <path class="cls-1" d="M120.89,132.36c-.95-.99-.8-2.16-.75-3.44,2.02,2.29,3.71,3.66,5.65.32l.78.52c-.01,3.07-3.33,5.05-5.68,2.59Z"/>
  <path class="cls-1" d="M126.91,126.98v1.93s-1.79.2-1.79.2l-.63-.51c-.73-1.92,1-1.68,2.42-1.62Z"/>
  <path class="cls-1" d="M121.42,123.75l-1.79-.3-.14-1.63c.83.49,2.2.64,1.93,1.94Z"/>
</svg>